<svg width="34" height="30" viewBox="0 0 34 30" fill="none" xmlns="http://www.w3.org/2000/svg">
<g clip-path="url(#clip0_2003_510)">
<path d="M5.62836 23.0468L11.0992 15.8654L11.0992 15.8609C11.8461 14.8809 13.2199 14.7126 14.1675 15.485C15.1152 16.2574 15.2779 17.678 14.531 18.658L7.30716 28.1399C6.89338 28.6828 6.26189 28.9997 5.59343 29H5.5716C4.89369 28.9915 4.25805 28.6579 3.85132 28.097L0.441336 23.4576C-0.286297 22.4602 -0.0942378 21.0416 0.870313 20.2891C1.83486 19.5367 3.20665 19.7353 3.93428 20.7327L5.62836 23.0468Z" fill="#3B3E3D"/>
<path d="M34.0801 20.0004V25.0004H13.6992L17.5088 20.0004L34.0801 20.0004Z" fill="#3B3E3D"/>
<path d="M5.62836 10.0468L11.0992 2.86539L11.0992 2.86088C11.8461 1.88088 13.2199 1.71258 14.1675 2.485C15.1152 3.2574 15.2779 4.67802 14.531 5.65802L7.30716 15.1399C6.89338 15.6828 6.26189 15.9997 5.59343 16H5.5716C4.89369 15.9915 4.25805 15.6579 3.85132 15.097L0.441336 10.4576C-0.286297 9.46018 -0.0942378 8.04159 0.870313 7.28912C1.83486 6.53666 3.20665 6.73528 3.93428 7.73274L5.62836 10.0468Z" fill="#3B3E3D"/>
<path d="M34.0801 6.00037V11.0004H13.6992L17.5088 6.00037L34.0801 6.00037Z" fill="#3B3E3D"/>
</g>
<defs>
<clipPath id="clip0_2003_510">
<rect width="34" height="30" fill="white"/>
</clipPath>
</defs>
</svg>
