<svg width="9" height="6" viewBox="0 0 9 6" fill="none" xmlns="http://www.w3.org/2000/svg">
<path d="M5.13787 5.34994L8.74674 1.59211C8.91108 1.41493 9.00202 1.17762 8.99997 0.931294C8.99791 0.684971 8.90303 0.449344 8.73575 0.275161C8.56847 0.100978 8.34218 0.00217596 8.10562 3.54749e-05C7.86906 -0.00210501 7.64116 0.092587 7.471 0.263717L4.5 3.35735L1.529 0.263716C1.35884 0.0925867 1.13094 -0.00210531 0.894378 3.51597e-05C0.657819 0.00217563 0.431532 0.100977 0.264253 0.27516C0.0969749 0.449343 0.00208979 0.684971 3.41526e-05 0.931294C-0.00202149 1.17762 0.0889169 1.41493 0.253263 1.59211L3.86213 5.34994C4.03132 5.52606 4.26076 5.625 4.5 5.625C4.73924 5.625 4.96868 5.52606 5.13787 5.34994Z" fill="#4F4F55"/>
</svg>
