<svg xmlns="http://www.w3.org/2000/svg" xmlns:xlink="http://www.w3.org/1999/xlink" width="2349.27" height="1690.862" viewBox="0 0 2349.27 1690.862">
  <defs>
    <clipPath id="clip-path">
      <path id="Path_4841" data-name="Path 4841" d="M2247.9,1687.124c-148.188,0-2151.664-4.324-2151.664-4.564-.825-1.944-254.334-312.65,64.884-637.5,158.168-160.96-145.249-369.491,0-548.536C409.929,189.827,656.11,362.553,861.2,276.3c36.236-15.226,72.6-39.733,109-77.34a405.3,405.3,0,0,1,66.984-55.611q5.528-3.685,11.17-7.19A446.252,446.252,0,0,1,1093.04,111.9q15.487-7.3,31.562-13.51h.01a516.74,516.74,0,0,1,52.31-17.033,591.933,591.933,0,0,1,78.02-15.305q17.4-2.264,35.085-3.578c229.155-17.226,487.043,79.672,620.127,221.3,26.794,28.519,148.634,176.083,52.591,378.91-60.64,128.058,193.395,250.363,283.666,396.595,229.507,371.789,3.576,623,1.493,627.846" transform="translate(-9434 1777.64)" fill="#ebf3fa"/>
    </clipPath>
    <linearGradient id="linear-gradient" x1="-0.236" y1="1.342" x2="0.249" y2="0.327" gradientUnits="objectBoundingBox">
      <stop offset="0" stop-color="#fff3cf"/>
      <stop offset="0.467" stop-color="#caebc4"/>
      <stop offset="0.488" stop-color="#b7e8c0"/>
      <stop offset="1" stop-color="#c1d6f4"/>
    </linearGradient>
    <clipPath id="clip-path-2">
      <rect id="Rectangle_3729" data-name="Rectangle 3729" width="242.337" height="67.208" transform="translate(942.113 1605.554)" fill="#1757d1"/>
    </clipPath>
    <clipPath id="clip-path-3">
      <rect id="Rectangle_3730" data-name="Rectangle 3730" width="275.368" height="275.367" transform="translate(635.017 951.187)" fill="none"/>
    </clipPath>
  </defs>
  <g id="Group_6542" data-name="Group 6542" transform="translate(9434 -1777.638)">
    <g id="Mask_Group_158" data-name="Mask Group 158" clip-path="url(#clip-path)">
      <rect id="Rectangle_3731" data-name="Rectangle 3731" width="2349.27" height="1639.952" transform="translate(-9434 1838.133)" opacity="0.402" fill="url(#linear-gradient)"/>
    </g>
    <path id="Path_4842" data-name="Path 4842" d="M1729.4,822.713a293.286,293.286,0,0,1-22.351,47.7A291.4,291.4,0,0,1,1356.116,996.96c-111.748-40.622-183.526-142.5-191.171-253.955a286.257,286.257,0,0,1,.369-44.438,293.366,293.366,0,0,1,43.932-130.892c.12-.2.249-.388.37-.592a292.073,292.073,0,0,1,166.061-124.018c7.112-2.038,14.325-3.807,21.591-5.293a289.717,289.717,0,0,1,157.887,11.646q10.447,3.8,20.406,8.3A289.328,289.328,0,0,1,1693.634,555.2l.015.005a292.409,292.409,0,0,1,46.59,105.712q2.678,12.221,4.322,24.685A289.965,289.965,0,0,1,1729.4,822.713" transform="translate(-9434 1777.64)" fill="#d7e5ff"/>
    <path id="Path_4843" data-name="Path 4843" d="M1407.169,566.834c-17.214,13.33-12.649,49-42.445,28.9s-48.505-31.036-56.939-13.493c-8.452,17.552,17.959,27.153,11.01,46.271s-21.089,21.138-35.991,5.439-15.346-30.81-39.491-30.311-34.451-9.431-33.274-27.556a25.5,25.5,0,0,0-.794-8.405c.12-.2.249-.389.37-.593a292.07,292.07,0,0,1,166.062-124.018c7.111-2.038,14.325-3.806,21.591-5.293,8.421,3.417,17.445,10.361,22.232,24.285,10.511,30.629,27.556,23.421,13.08,49.08s-8.522,31.951,7.282,36.661,34.023,11.331,31.536,23.832-47.014-18.126-64.229-4.8" transform="translate(-9434 1777.64)" fill="#1757d1" opacity="0.25"/>
    <path id="Path_4844" data-name="Path 4844" d="M1729.4,822.713a293.286,293.286,0,0,1-22.351,47.7,289.682,289.682,0,0,1-81.387,89.322,33.248,33.248,0,0,1-21.677-8.545c-29.177-26.066,9.49-53.754,29.849-67.225s-17.445-17.937-36.5-44.191,25.566-61.825-3.111-63.747-63.56-3.779-69.4-34.5,24.329-24.4,19.05-50.279,19.673-30.727,46.364-23.344,29.979-12.293,63.063-3.358,17.51,49.655,54.009,59.83,31.923,17.789,31.923,17.789a17.6,17.6,0,0,1,6.849,4.252,291.856,291.856,0,0,1-16.68,76.3" transform="translate(-9434 1777.64)" fill="#1757d1" opacity="0.25"/>
    <path id="Path_4845" data-name="Path 4845" d="M1744.561,685.6c-34.746,3.634-32.4-39.746-61.9-37.175-29.745,2.591-17.018-18.555-31.742-40.4-14.741-21.84-64.39-10-54.3-32.107s37.816-4.806,50.811-20.691,40.47-.749,40.47-.749a20.97,20.97,0,0,1,5.735.724s.005-.013.015.005a292.409,292.409,0,0,1,46.59,105.712q2.678,12.221,4.322,24.685" transform="translate(-9434 1777.64)" fill="#1757d1" opacity="0.25"/>
    <path id="Path_4846" data-name="Path 4846" d="M1524.357,516.667s23.595-16.7,1.408-32.228-24.866-6.734-43.244-15.72-31.268,3.079-22.8,24.451,8.8,56.6,27.782,44.789,21.029-25.242,36.857-21.292" transform="translate(-9434 1777.64)" fill="#1757d1" opacity="0.25"/>
    <path id="Path_4847" data-name="Path 4847" d="M162.41,1683.392h101.6c5.444-4.618-3.769-15.1-13.394-15.811-4.181-.316-9.467.559-15.507,1.835-1.4-18.569-9.382-102.045-39.472-98.692-33.832,3.756,0,36.762,9.565,56.3,7.086,14.473,14.559,35.23,17.974,45.026-2.747.6-5.591,1.179-8.5,1.713-4.485-13.769-21.17-60.083-42.389-57.385-24.913,3.159-14.9,21.729,2.759,32.751,12.954,8.107,28.862,19.627,36.422,25.193a107.966,107.966,0,0,1-19.87,1.592c-17.4-.413-25.9,4.715-29.19,7.474" transform="translate(-9434 1777.64)" fill="#a8d29f"/>
    <path id="Path_4848" data-name="Path 4848" d="M1779.31,1683.392h-94.368c-5.057-4.289,3.5-14.031,12.44-14.686,3.883-.294,8.793.52,14.4,1.7,1.3-17.248,8.713-94.785,36.663-91.669,31.425,3.488,0,34.146-8.884,52.3-6.581,13.444-13.524,32.724-16.695,41.823,2.551.552,5.193,1.094,7.89,1.59,4.166-12.789,19.664-55.807,39.373-53.3,23.141,2.935,13.839,20.183-2.562,30.421-12.033,7.529-26.809,18.23-33.83,23.4a100.206,100.206,0,0,0,18.455,1.479c16.165-.384,24.054,4.379,27.114,6.942" transform="translate(-9434 1777.64)" fill="#a8d29f"/>
    <path id="Path_4849" data-name="Path 4849" d="M1846.7,1064.811s2.248-22.339-9.435-21.573-14.775,6.123-13.469,10.416,12.666,18.495,12.666,18.495Z" transform="translate(-9434 1777.64)" fill="#ffb27d"/>
    <path id="Path_4850" data-name="Path 4850" d="M2028.731,1109.574s-12.932,15.2-40.743,32.731c-2.634,1.665-5.388,3.342-8.3,5.029a308.194,308.194,0,0,1-38.1,18.745c-1.61.664-3.5,1.393-5.627,2.155-16.665,6.02-47.329,14.553-66.334,15.316-1.654.065-3.222.065-4.68.01-28.923-1.165-32.45-113.424-32.45-113.424s3.222-11.233,18.081-8.4c0,0,22.565,63.4,30.653,68.566,7.183,4.593,48.472-57.993,84.011-62.372,23.924-2.947,63.483,41.647,63.483,41.647" transform="translate(-9434 1777.64)" fill="#739af0"/>
    <path id="Path_4851" data-name="Path 4851" d="M1951.029,1656.994s2.136,24.712-3.088,27.283l-66.85-.137s0-7.715,10.737-9.429,29.6-8,32.793-22,26.408,4.286,26.408,4.286" transform="translate(-9434 1777.64)" fill="#1c3154"/>
    <path id="Path_4852" data-name="Path 4852" d="M1901.951,1357.911c.33,16.159,1.1,32.826,2.626,47.806,7.22,71.079,9.757,156.959,10.8,173.516,1.8,28.742,7.476,74.66,7.476,74.66s11.261,10.691,33.214,5.589c0,0,18.187-66.134,22.251-135.772q.1-1.714.185-3.44c.47-9.206.964-19.734,1.468-31.085,3.344-76.034,6.976-188.984,6.976-188.984l-83.887-19.7s-1.929,37.125-1.1,77.407" transform="translate(-9434 1777.64)" fill="#1757d1"/>
    <path id="Path_4853" data-name="Path 4853" d="M1901.951,1357.911c21.259,36.68,61.783,104.257,78.016,131.274,3.344-76.034,6.976-188.984,6.976-188.984l-83.887-19.7s-1.929,37.125-1.1,77.407" transform="translate(-9434 1777.64)" fill="#233862"/>
    <path id="Path_4854" data-name="Path 4854" d="M1935.967,1168.234c-16.665,6.02-47.329,14.553-66.334,15.315,2.906-.543,24.066-4.735,31.893-14.183,8.4-10.156,22.554-37.739,33.81-26.484,5.3,5.3,3.744,15.773.631,25.352" transform="translate(-9434 1777.64)" fill="#6385db"/>
    <path id="Path_4855" data-name="Path 4855" d="M2076.925,1345.962s5.206,20.419,4.353,24.956-5.937,19.9-9.107,23.718-3.3-16.573-5.406-19.776-.966,7.612-2.655,8.5-4.506-8.191-5.761-11.409,4.5-14.417,5.036-22.446,13.54-3.54,13.54-3.54" transform="translate(-9434 1777.64)" fill="#ffb27d"/>
    <path id="Path_4856" data-name="Path 4856" d="M2117.559,1628.91s11.9,10.858,9.576,18.573-13.058,12.859-14.51,22.288-7.254,14.574-12.478,14.574h-24.9s-3.846-6.636,5.44-8.636,12.788-13.081,12.208-23.367.87-24,.87-24l19.735-4.573Z" transform="translate(-9434 1777.64)" fill="#1c3154"/>
    <path id="Path_4857" data-name="Path 4857" d="M1916.276,1301.922s78.528,168.02,120.316,241.742,54.849,94.3,54.849,94.3,23.942-9.43,26.118-15.859c0,0-15.98-142.325-43.966-177.021-15.813-19.6-34.388-78.436-35.258-99.011s-19.217-69.678-19.217-69.678Z" transform="translate(-9434 1777.64)" fill="#1757d1"/>
    <path id="Path_4858" data-name="Path 4858" d="M1901.643,1293.179s25.57,27.52,69.022,35.83c19.07,3.651,57.777,7.178,67.377-6.4,2.255-3.188,2.275-7.908,1.775-15.277-1.293-19.151-6.111-56.177,15.64-130.587a127,127,0,0,0,4.181-19.888c4.748-38.066,4.233-66.8-28.794-82.155-49.485-23-69.8-4.076-69.8-4.076s-26.319,12.3-38.345,48.141c-24.049,71.693-21.059,174.411-21.059,174.411" transform="translate(-9434 1777.64)" fill="#739af0"/>
    <path id="Path_4859" data-name="Path 4859" d="M2001.135,1068.383a36.735,36.735,0,0,1-36.965,2.422c-1.075-.537-.94-7.931-.672-15.19.268-7.125.941-14.115.941-14.115l17.608-11.557,16.8-11.024c-2.015,37.907,6.05,46.776,2.286,49.464" transform="translate(-9434 1777.64)" fill="#ffb27d"/>
    <path id="Path_4860" data-name="Path 4860" d="M1995.893,1034.568s-11.426,17.148-32.395,21.047c.268-7.125,1.03-14.973,1.03-14.973l17.519-10.7Z" transform="translate(-9434 1777.64)" fill="#ed985f"/>
    <path id="Path_4861" data-name="Path 4861" d="M1948.669,1037.045s42.6,15.9,52.079-10.35,21.36-41.872-5.438-53.132-35.729-3.136-41.059,4.853-16.419,53.817-5.582,58.629" transform="translate(-9434 1777.64)" fill="#ffb27d"/>
    <path id="Path_4862" data-name="Path 4862" d="M2027.286,976.512c.49-.379,1.483-.566,3.558-.273a8.488,8.488,0,0,0-3.62-1.837c.135-2.937-.385-8.286-5.052-10.483a6.274,6.274,0,0,1,2.106,5.028c-4.532-6.962-15.877-13.62-50.14-17.622-45.158-5.273-36.127,26.09-31.041,30.621s21.413-1.911,31.969,1.059,9.536,18.87,12.754,21.715,2.53-1.2,7.894-2.45,4.218,7,1.75,12.019,2.911,13.356,2.911,13.356l8.289-6.012c8.289-6.011,20.891-35.918,19.1-43.179-.159-.64-.312-1.289-.474-1.942" transform="translate(-9434 1777.64)" fill="#2c3a64"/>
    <path id="Path_4863" data-name="Path 4863" d="M2039.817,1307.334c-1.293-19.151-6.11-56.178,15.64-130.587a127.01,127.01,0,0,0,4.181-19.889h0c-16.159-5.329-45.6,6.525-45.6,6.525s-6.921,98.358,25.787,143.952" transform="translate(-9434 1777.64)" fill="#6385db"/>
    <path id="Path_4864" data-name="Path 4864" d="M2039.754,1079.679s19.884,7.231,32.566,59.877c8.38,34.784,23.808,85.912,25.547,101.977s-17.637,110.13-17.637,110.13-2.733,1.993-9.428.654a15.574,15.574,0,0,1-9.391-5.616s-4.632-62.694-3.436-92.3c.5-12.3-56.934-90.071-87.93-100.089-12.173-3.935,69.709-74.638,69.709-74.638" transform="translate(-9434 1777.64)" fill="#739af0"/>
    <path id="Path_4865" data-name="Path 4865" d="M1761.626,1011.53s57.473-1.634,123.794,10.575l6.929-17.46,7.6-19.13s-66.581-28.664-106.6-68.58Z" transform="translate(-9434 1777.64)" fill="#aec3ff"/>
    <path id="Path_4866" data-name="Path 4866" d="M1794.253,916.008l-33,97.4a8.776,8.776,0,0,1-5.781-11.352l29.04-81.84a7.244,7.244,0,0,1,9.737-4.211" transform="translate(-9434 1777.64)" fill="#97d6a6"/>
    <path id="Path_4867" data-name="Path 4867" d="M1825.752,1084.027h0a11.931,11.931,0,0,0,14-9.334l11.361-56.846a11.9,11.9,0,1,0-23.33-4.662l-11.361,56.846a11.931,11.931,0,0,0,9.334,14" transform="translate(-9434 1777.64)" fill="#97d6a6"/>
    <path id="Path_4868" data-name="Path 4868" d="M1761.626,1011.53s57.473-1.634,123.794,10.575l6.929-17.46c-62.317-12.725-130.723,6.885-130.723,6.885" transform="translate(-9434 1777.64)" fill="#739af0"/>
    <path id="Path_4869" data-name="Path 4869" d="M1867.084,1018.594l17.957,3.159c-.274.011,16.681,3.3,22.239-11.728a12.178,12.178,0,0,0,1.066-3.244c4.319-18.732-5.965-22.182-5.965-22.182l-23.111-9.006-7.344,25.986,0,.091Z" transform="translate(-9434 1777.64)" fill="#97d6a6"/>
    <path id="Path_4870" data-name="Path 4870" d="M1867.084,1018.594l17.957,3.159c-.274.011,16.681,3.3,22.239-11.728-10.159-7.391-35.354-8.446-35.354-8.446l0,.091Z" transform="translate(-9434 1777.64)" fill="#2d9463"/>
    <path id="Path_4871" data-name="Path 4871" d="M1827.285,1028.98s8.784,3.5,7.174,7.369-12.782,9.189-14.545,6.136,1.845-16.769,7.371-13.505" transform="translate(-9434 1777.64)" fill="#ffb27d"/>
    <path id="Path_4872" data-name="Path 4872" d="M1846.872,1061.292a123.436,123.436,0,0,0,1.762-13.116c.1-4.129.589-7.5-.384-7.618s-1.677.643-2.074,1.971-1.918,9.562-1.918,9.562l.767,7.946Z" transform="translate(-9434 1777.64)" fill="#ffb27d"/>
    <path id="Path_4873" data-name="Path 4873" d="M977.948,1055.425l-49.773,591.8s-5.214,35.874,21.47,35.937c43.874.1,218.376,0,218.376,0S1135,1675.7,1135.4,1658.9c.471-19.805,58.173-609.071,58.173-609.071Z" transform="translate(-9434 1777.64)" fill="#7599ea"/>
    <path id="Path_4874" data-name="Path 4874" d="M1184.449,1672.666c-8.629.025-177.569.312-220.3-.237-18.621-.232-21.885-16.556-22.039-27.121a52.838,52.838,0,0,1,.565-8.81l1.294-15.382,3.3-39.2,2.913-34.637,3.745-44.507,3.154-37.568,35.365-420.517,215.627-5.6s-24.3,246.6-41.493,426.113c-1.919,20-3.744,39.178-5.432,57.079q-.823,8.574-1.585,16.744c-1.6,16.985-3.051,32.58-4.319,46.351-.669,7.259-1.286,14-1.842,20.181-2.194,24.208-3.479,39.667-3.5,42.606a24.89,24.89,0,0,0,.42,4.79c3.539,18.861,30.882,19.715,34.121,19.715" transform="translate(-9434 1777.64)" fill="#90aff4"/>
    <path id="Path_4875" data-name="Path 4875" d="M454.288,733.388l121.236,486.98,16.6,66.695,56.465,226.821H1697.636l-208.124-780.5Z" transform="translate(-9434 1777.64)" fill="#aec3ff"/>
    <path id="Path_4876" data-name="Path 4876" d="M454.286,733.387l-16.8,5.6,188.768,791.838,22.339-16.939Z" transform="translate(-9434 1777.64)" fill="#90aff4"/>
    <path id="Path_4877" data-name="Path 4877" d="M626.252,1530.827h1042.59l28.79-16.939H648.591Z" transform="translate(-9434 1777.64)" fill="#7599ea"/>
    <rect id="Rectangle_3728" data-name="Rectangle 3728" width="225.736" height="10.727" transform="translate(-8441.621 3450.305)" fill="#aec3ff"/>
    <path id="Path_4878" data-name="Path 4878" d="M1160.731,1530.822l-1.166,8.2-212.293,42.889,2.913-34.637,1.389-16.453Z" transform="translate(-9434 1777.64)" fill="#1757d1"/>
    <g id="Group_6538" data-name="Group 6538" transform="translate(-9434 1777.64)" opacity="0.385">
      <g id="Group_6537" data-name="Group 6537">
        <g id="Group_6536" data-name="Group 6536" clip-path="url(#clip-path-2)">
          <path id="Path_4879" data-name="Path 4879" d="M1184.449,1672.666c-8.629.025-177.569.312-220.3-.237-18.621-.232-21.885-16.556-22.039-27.121l211.291-39.753c-2.194,24.208-3.479,39.667-3.5,42.606a24.89,24.89,0,0,0,.42,4.79c3.539,18.861,30.882,19.715,34.121,19.715" fill="#1757d1"/>
        </g>
      </g>
    </g>
    <path id="Path_4880" data-name="Path 4880" d="M454.286,733.387H1489.511l167.967,627.273H610.446Z" transform="translate(-9434 1777.64)" fill="#aec3ff"/>
    <path id="Path_4881" data-name="Path 4881" d="M1608.651,1333.478H639.364L604.728,1195.5l-13.4-53.391-5.464-21.773-35.6-141.8-1.846-7.382L529.6,896.2l-8.418-33.536L514,834.053,497.165,766.99h955.314l18.49,67.063,7.882,28.609L1488.1,896.2,1549,1117.142v.01l5.165,18.718,2.4,8.69,42.055,152.536Z" transform="translate(-9434 1777.64)" fill="#1757d1" opacity="0.385"/>
    <path id="Path_4882" data-name="Path 4882" d="M1470.97,834.057H514l-16.834-67.069h955.314Z" transform="translate(-9434 1777.64)" fill="#1757d1"/>
    <path id="Path_4883" data-name="Path 4883" d="M536.689,797.3c-1.155-4.63,1.663-8.384,6.294-8.384a11.452,11.452,0,0,1,10.474,8.384c1.155,4.63-1.663,8.384-6.293,8.384a11.453,11.453,0,0,1-10.475-8.384" transform="translate(-9434 1777.64)" fill="#e9f3fe"/>
    <path id="Path_4884" data-name="Path 4884" d="M564.547,797.3c-1.155-4.63,1.663-8.384,6.294-8.384a11.452,11.452,0,0,1,10.474,8.384c1.154,4.63-1.663,8.384-6.294,8.384a11.452,11.452,0,0,1-10.474-8.384" transform="translate(-9434 1777.64)" fill="#e9f3fe"/>
    <path id="Path_4885" data-name="Path 4885" d="M594.544,797.3c-1.154-4.63,1.664-8.384,6.294-8.384a11.452,11.452,0,0,1,10.474,8.384c1.155,4.63-1.663,8.384-6.293,8.384a11.454,11.454,0,0,1-10.475-8.384" transform="translate(-9434 1777.64)" fill="#e9f3fe"/>
    <path id="Path_4886" data-name="Path 4886" d="M1262.448,377.081c39.177-46,99.59-138.4,140.262-185.714a15,15,0,0,0-11.43-24.769h-74.012L1387.08,8.741c2.98-6.739-6.2-12.11-10.616-6.206l-168.8,225.924a9.341,9.341,0,0,0,8.626,14.862L1300.08,233l-49.85,136.936c-2.744,7.538,7.017,13.248,12.218,7.142" transform="translate(-9434 1777.64)" fill="#dda300"/>
    <path id="Path_4887" data-name="Path 4887" d="M913.992,657.247c8.813-45.205,14.378-129.172,23.691-175.813a11.436,11.436,0,0,0-16.855-12.176L871.67,496.942,858.99,365.984c-.541-5.591-8.649-5.723-9.372-.151l-27.6,213.194a7.121,7.121,0,0,0,11.289,6.644l51.792-38.194,18.11,109.6c1,6.033,9.617,6.175,10.788.174" transform="translate(-9434 1777.64)" fill="#1757d1" opacity="0.25"/>
    <path id="Path_4888" data-name="Path 4888" d="M1650.993,1346.829l-842.232,70.959c-63.951,5.388-110.232-59.809-84.05-118.4l356.824-798.572c27.069-60.584,110.278-67.594,147.1-12.394l485.408,727.612c35.615,53.388.9,125.408-63.054,130.8" transform="translate(-9434 1777.64)" fill="#e6efff"/>
    <path id="Path_4889" data-name="Path 4889" d="M1653.676,1378.685l-842.231,70.96a116.276,116.276,0,0,1-115.923-163.3l356.823-798.572c17.535-39.24,53.571-64.823,96.4-68.431s82.638,15.584,106.489,51.337l485.407,727.614a116.274,116.274,0,0,1-86.965,180.394m-499.563-895.63a51.673,51.673,0,0,0-43.389,30.8L753.9,1312.429a52.334,52.334,0,0,0,52.177,73.5l842.231-70.959a52.335,52.335,0,0,0,39.144-81.195L1202.044,506.162a51.674,51.674,0,0,0-47.931-23.107" transform="translate(-9434 1777.64)" fill="#dda300"/>
    <path id="Path_4890" data-name="Path 4890" d="M1134.378,1224.654a77.057,77.057,0,0,1,3.277-30.587,70.618,70.618,0,0,1,14.414-25.313,75.679,75.679,0,0,1,24.2-17.94q14.427-6.921,33.137-8.506a96.524,96.524,0,0,1,34.344,2.821,75.239,75.239,0,0,1,27.112,13.617,70.679,70.679,0,0,1,18.443,22.545,77.194,77.194,0,0,1,8.35,29.607,75.363,75.363,0,0,1-3.3,30.34,71.148,71.148,0,0,1-14.432,25.067,75.034,75.034,0,0,1-24.451,17.961,96.526,96.526,0,0,1-33.389,8.528q-18.706,1.577-34.093-2.843a75.447,75.447,0,0,1-26.857-13.639,71.051,71.051,0,0,1-18.424-22.3,75.218,75.218,0,0,1-8.328-29.361m130.212-152.366-121.316,10.221-52.111-413.074,155.691-13.117Z" transform="translate(-9434 1777.64)" fill="#dda300"/>
    <path id="Path_4891" data-name="Path 4891" d="M611.385,1097.618s2.641-5.939,4.351-8.752,9.017-11.053,10.261-9.186,6.219,14.422,3.576,17.938.171,9.634-12.974,13.337Z" transform="translate(-9434 1777.64)" fill="#ffb27d"/>
    <path id="Path_4892" data-name="Path 4892" d="M465.311,1060.115s67.287,56.168,93.524,50.968c20.516-4.066,52.951-14.355,52.951-14.355s8.56,8.143,6.139,17.9c0,0-41.322,38.882-70.763,39.132-46.018.394-67.721-22.8-67.721-22.8Z" transform="translate(-9434 1777.64)" fill="#2d9463"/>
    <path id="Path_4893" data-name="Path 4893" d="M347.3,1652.56s1.954,31.51,8.05,31.961c.811.06,30.919.06,30.919.06l38.435-.222s-.251-9.261-11.486-11.219-30.04-9.853-36.845-24.7c-7.16-15.621-29.073,4.123-29.073,4.123" transform="translate(-9434 1777.64)" fill="#113c68"/>
    <path id="Path_4894" data-name="Path 4894" d="M345.088,1654.748s11.684,3.908,20.806,3.908a76.423,76.423,0,0,0,19.424-2.771s2.2-21.273,14.3-68.144c6.346-24.567,15.409-56.155,28.3-95.406,35.651-108.479,46.493-171.94,47.482-177.949.053-.316.074-.474.074-.474l-.116-.053-109.605-48.124s13.547,149.509-3.737,206.9a241.793,241.793,0,0,0-6.273,27.493c-10.915,62.334-10.663,154.624-10.663,154.624" transform="translate(-9434 1777.64)" fill="#1757d1"/>
    <path id="Path_4895" data-name="Path 4895" d="M399.623,1587.741c6.347-24.567,15.41-56.155,28.3-95.406,35.651-108.48,46.492-171.94,47.482-177.949-.011-.179-.021-.348-.042-.527l-109.606-48.124s13.547,149.509-3.736,206.9c-2.422,8.02,37.6,115.11,37.6,115.11" transform="translate(-9434 1777.64)" fill="#233862"/>
    <path id="Path_4896" data-name="Path 4896" d="M432.911,1652.56s1.954,31.51,8.05,31.961c.811.06,30.919.06,30.919.06l38.435-.222s-.252-9.261-11.486-11.219-30.04-9.853-36.845-24.7c-7.16-15.621-29.073,4.123-29.073,4.123" transform="translate(-9434 1777.64)" fill="#15447c"/>
    <path id="Path_4897" data-name="Path 4897" d="M495.053,1269.258s1.424,96.884-15.339,215.838-11.081,169.449-11.081,169.449-11.516,3.733-16.164,4.11c-11.841.965-23.982-2.775-23.982-2.775s-23.993-119-17.114-178.539-32.855-204.307-32.855-204.307Z" transform="translate(-9434 1777.64)" fill="#1757d1"/>
    <path id="Path_4898" data-name="Path 4898" d="M417.334,1042.539l21.395,14.029,19.488-5.511c3.562-5.081,4.506-14.878,4.558-23.365a145.356,145.356,0,0,0-.765-15.559l-28.865-12.74-10.771-4.747c.031.168.838,8.843.953,10.112,2.012,22.494-5.993,37.781-5.993,37.781" transform="translate(-9434 1777.64)" fill="#ffb27d"/>
    <path id="Path_4899" data-name="Path 4899" d="M495.544,1296.192c-26.63,25.712-127.414,21.388-133.625-6.941s6.773-241.154,52.263-254.523c9.44-2.774,59.906,13.537,59.906,13.537a319.959,319.959,0,0,1,13.112,47.09c1.008,5.134,3.95,59.52,6.152,110.4,1.027,23.8,1.9,46.833,2.34,63.7.4,15.8.425,26.176-.148,26.738" transform="translate(-9434 1777.64)" fill="#97d6a6"/>
    <path id="Path_4900" data-name="Path 4900" d="M425.486,1005.155c5.856,9.9,26.4,18.566,37.289,22.537a145.356,145.356,0,0,0-.765-15.559l-28.865-12.741c-6.381-.084-10.268,1.342-7.659,5.763" transform="translate(-9434 1777.64)" fill="#fca56b"/>
    <path id="Path_4901" data-name="Path 4901" d="M472.9,1010.375s-46.509,14.509-55.1-14.594-20.377-46.831,8.955-57.324,38.406-1.1,43.636,7.917,14.385,59.478,2.508,64" transform="translate(-9434 1777.64)" fill="#ffb27d"/>
    <path id="Path_4902" data-name="Path 4902" d="M468.563,943.57s-2.966,33.866-9.97,32.4-14.713-4.615-13.688,5.594-6.81,27.709-16.909,27.667c-21.66-.09-45.193-55.669-39.264-66.208,17.109-30.409,104.559-36.547,79.831.551" transform="translate(-9434 1777.64)" fill="#163560"/>
    <path id="Path_4903" data-name="Path 4903" d="M461.721,1035.463c-.6-.252-34.623-15.515-38.6-14.2s-8.938,13.467-8.938,13.467l59.909,13.544s-4.716-9.587-12.369-12.81" transform="translate(-9434 1777.64)" fill="#ed7d2b"/>
    <path id="Path_4904" data-name="Path 4904" d="M673.538,1200.286,482.816,1379.852c-3.738,3.52-8.452,4.641-10.475,2.493l-6.438-6.838c-2.024-2.15-.62-6.787,3.118-10.307l190.722-179.567c3.738-3.52,8.452-4.641,10.475-2.493l6.438,6.838c2.024,2.15.62,6.787-3.118,10.308" transform="translate(-9434 1777.64)" fill="#1f4d84"/>
    <path id="Path_4905" data-name="Path 4905" d="M566.51,1301.054l-83.693,78.8c-3.738,3.519-8.452,4.641-10.475,2.492l-6.438-6.838c-2.024-2.149-.621-6.787,3.118-10.306l83.693-78.8Z" transform="translate(-9434 1777.64)" fill="#739af0"/>
    <path id="Path_4906" data-name="Path 4906" d="M629.7,1132.488A149.489,149.489,0,1,0,877.473,982.261q-1.149-1.146-2.348-2.263A149.495,149.495,0,0,0,629.7,1132.488M672.429,994.52a137.692,137.692,0,1,1,5.93,194.63,137.53,137.53,0,0,1-5.93-194.63" transform="translate(-9434 1777.64)" fill="#1f4d84"/>
    <g id="Group_6541" data-name="Group 6541" transform="translate(-9434 1777.64)" opacity="0.5">
      <g id="Group_6540" data-name="Group 6540">
        <g id="Group_6539" data-name="Group 6539" clip-path="url(#clip-path-3)">
          <path id="Path_4907" data-name="Path 4907" d="M872.981,1183.209a137.694,137.694,0,1,1-5.935-194.621,137.12,137.12,0,0,1,5.935,194.621" fill="#b3cff9"/>
        </g>
      </g>
    </g>
    <path id="Path_4908" data-name="Path 4908" d="M495.692,1269.454c-105.089-74.885-96.351-174.81-96.351-174.81,38.41,21.664,76.524,69.563,94.011,111.112,1.027,23.8,1.9,46.833,2.34,63.7" transform="translate(-9434 1777.64)" fill="#2d9463"/>
    <path id="Path_4909" data-name="Path 4909" d="M599.412,1235.351c7.411-1.71,12.388-7.312,13.422-8.291,0,0,3.161.216-.518,6.957-.308.564-.991,2.013-1.507,3.037a.655.655,0,0,0,.55.942c4.277.325,8.575-1.368,16.814.35,1.137.237,1.468,2.96,1.424,4.12a10.518,10.518,0,0,1-2.215,7.178c-1.327,1.75-5.031,3.635-13.279,6.954-3.142,1.265-12.126.311-20.546-2.581l-6.728-3.115,2.086-12.5,1.69.354c2.684.563,6.009-2.715,8.807-3.4" transform="translate(-9434 1777.64)" fill="#ffb27d"/>
    <path id="Path_4910" data-name="Path 4910" d="M431.956,1048.272s-94.425,17.979,27.781,154.718c19.544,21.869,125.139,50.344,125.139,50.344s10.71-9.112,5.311-16.492c0,0-72.705-52.8-88.7-61.189-7.2-3.777-27.93-84.268-39.661-103.653s-29.868-23.728-29.868-23.728" transform="translate(-9434 1777.64)" fill="#97d6a6"/>
    <path id="Path_4911" data-name="Path 4911" d="M613.945,1099.276s3.089-5.9,3.692-9.016,4.491-12.194,6.094-13.793c.642-.64,2.756.189,3.006,2.94.108,1.2-.479,3.376-1.518,5.973-1.689,4.225-1.41,9.956-2,11.867-1.462,4.758-9.276,2.029-9.276,2.029" transform="translate(-9434 1777.64)" fill="#ffb27d"/>
    <path id="Path_4912" data-name="Path 4912" d="M651.523,865a5.7,5.7,0,0,0-1.018,6.091.052.052,0,0,0,.016.03c1.468,4.061,6.321,8.6,11.958,13.127.721.582,1.361,1.111,1.919,1.6.147.129.294.257.432.386.113.1.222.2.331.3,5.257,4.85,3.277,5.959,12.721,15.8,10.768,11.211,18.184,11.415,20.294,10.4,1.785-.87-1.839-6.815-5.855-13.5-.194-.322-.385-.649-.585-.975-.535-.888-1.067-1.79-1.6-2.683-4.706-8.043-3.5-11.814-2.375-23.781.91-9.724,15.146-54.32,15.146-54.32l-20.641-3.563s-6.228,35.514-13.08,40.981c-3.664,2.914-7.763,2.949-11.284,5.109q-.374.225-.733.463A27.09,27.09,0,0,0,651.523,865" transform="translate(-9434 1777.64)" fill="#ffb27d"/>
    <path id="Path_4913" data-name="Path 4913" d="M651.523,865a5.7,5.7,0,0,0-1.018,6.091.052.052,0,0,0,.016.03c1.8,4.058,6.529,8.57,11.978,13.086.712.592,1.34,1.135,1.9,1.643.147.129.294.257.432.386.113.1.222.2.331.3,5.257,4.85,3.277,5.959,12.721,15.8,10.768,11.211,18.184,11.415,20.294,10.4,1.785-.87-1.839-6.815-5.855-13.5a45.894,45.894,0,0,1-19.2-14.156c-6.248-7.977-10.488-18.144-14.739-24.386l-1.213-.228a27.131,27.131,0,0,0-5.65,4.538" transform="translate(-9434 1777.64)" fill="#233862"/>
    <path id="Path_4914" data-name="Path 4914" d="M817.976,852.163c1.272,6.372,10.355,5.312,20.5,2.836s7.736.471,22.179-1.123,18.818-6.977,19.26-9.124c.395-1.905-6.741-2.58-14.4-3.464-.962-.108-1.929-.228-2.9-.348-8.641-1.087-14.968-6.666-22.816-11.248-7.434-4.341-18.524-22.018-18.524-22.018l-19.806,1.562s10.388,15.789,14.4,22.654c2.363,4.038,2.236,9.375,1.94,13.5a25.427,25.427,0,0,0,.15,6.775" transform="translate(-9434 1777.64)" fill="#ffb27d"/>
    <path id="Path_4915" data-name="Path 4915" d="M838.479,855c10.148-2.476,7.735.471,22.178-1.123s18.819-6.977,19.261-9.124c.394-1.905-6.741-2.58-14.4-3.464l-.072.147a40.707,40.707,0,0,1-20.684,6.421c-9.8.236-20.175-2.575-26.942-2.468a25.384,25.384,0,0,0,.151,6.775c1.272,6.372,10.355,5.313,20.5,2.836" transform="translate(-9434 1777.64)" fill="#233862"/>
    <path id="Path_4916" data-name="Path 4916" d="M742.119,725.494l-18.533,49.815-24.193,65.043a39.159,39.159,0,0,1-12.841-1.178c-5.784-1.674-12.417-6.049-12.417-6.049S680.87,763.28,693.4,723.189c3.213-10.291,6.812-18.614,10.781-23.3,19.419-22.932,37.934,25.6,37.934,25.6" transform="translate(-9434 1777.64)" fill="#233862"/>
    <path id="Path_4917" data-name="Path 4917" d="M723.322,646.365c-10.538-3.4-38.038-.066-67.866,5.322a20.23,20.23,0,0,1-20.886-9.44l-75.062-5.888s-24.79,54.921-11.241,89.926c1.991,5.145,6.365,8.357,13.116,8.468h0s45.359.078,59.866.083c37.33.013,79.012-25.633,84.4-26.71,8.824-1.761,12.348,15.887,21.166,34.421s82.916,82.091,82.916,82.091,11.392.117,16.1-1.646c5.061-1.9,6.914-4.361,6.914-4.361S750.673,655.2,723.322,646.365" transform="translate(-9434 1777.64)" fill="#1757d1"/>
    <path id="Path_4918" data-name="Path 4918" d="M626.67,421.818a26.626,26.626,0,0,0-14.337-3.735,39.894,39.894,0,0,1-6.923-.423c-28.647-4.211-45.914,37.4-46.929,49.97-1.864,23.084-14.077,26.6-31.27,41.05-34.476,28.976-24.381,62.664-5.54,75.187,11.306,7.513,31.239.01,31.239.01.282.2,54.519-30.3,81.254-45,40.074-5.683,8.6-107.465-7.494-117.055" transform="translate(-9434 1777.64)" fill="#233862"/>
    <path id="Path_4919" data-name="Path 4919" d="M611.763,526.337c.118.076-13.153,4.6-22.024.669-8.347-3.691-14.665-17.427-14.541-17.434,3.8-.174,7.967-3.492,11.185-25.274l1.617.581,27.182,9.791s-1.973,8.723-3.25,17.028c-1.075,6.972-1.653,13.652-.169,14.639" transform="translate(-9434 1777.64)" fill="#ffb27d"/>
    <path id="Path_4920" data-name="Path 4920" d="M615.182,494.671s-1.086,4.707-2.672,13.5C596.9,505.353,590.2,493.322,588,484.879Z" transform="translate(-9434 1777.64)" fill="#ed975d"/>
    <path id="Path_4921" data-name="Path 4921" d="M619.228,503.33s-37.194-5-33.72-28.12,1.012-39.327,24.906-37.108,27.172,11.73,27.889,19.727-9.311,46.207-19.075,45.5" transform="translate(-9434 1777.64)" fill="#ffb27d"/>
    <path id="Path_4922" data-name="Path 4922" d="M636.952,445.158s-23.817,20.511-40.014,22.16-22.326-3.553-22.326-3.553a63.229,63.229,0,0,0,15.3-20.71,11.394,11.394,0,0,1,9.392-6.711c11.565-.995,33.488-1.443,37.651,8.814" transform="translate(-9434 1777.64)" fill="#233862"/>
    <path id="Path_4923" data-name="Path 4923" d="M622.069,443.315s7.963,7.7,10.469,13.418c2.42,5.514,3.141,18.7,1.211,23.934,0,0,12.419-24.127,5.4-35.855-7.447-12.435-17.077-1.5-17.077-1.5" transform="translate(-9434 1777.64)" fill="#233862"/>
    <path id="Path_4924" data-name="Path 4924" d="M643.065,581.14c-1.15,75.292-.329,59.559-8.567,66.7-1.986,1.72-7.565,2.743-14.908,3.225-23.088,1.525-63.671-2.293-65.213-6.56-5.319-14.765-1.559-19.35-5.994-41.953-.462-2.4-1.034-5.006-1.706-7.84-3.7-15.525-7.3-20.807,5.848-45.742,11.926-22.587,24.314-40.918,25.427-40.256,31.438,18.677,33.98,2.988,33.98,2.988s31.7,32.713,31.133,69.438" transform="translate(-9434 1777.64)" fill="#97d6a6"/>
    <path id="Path_4925" data-name="Path 4925" d="M723.586,775.308l-24.194,65.043a39.158,39.158,0,0,1-12.841-1.178c-5.783-1.673-12.417-6.049-12.417-6.049s6.736-69.845,19.27-109.935Z" transform="translate(-9434 1777.64)" fill="#2a4e96"/>
    <path id="Path_4926" data-name="Path 4926" d="M611.933,511.7s32.353,5.5,36.147,19.429,16.273,98.491,16.273,98.491-9.127,8.907-16.723,1.306S623.744,551.8,623.744,551.8Z" transform="translate(-9434 1777.64)" fill="#97d6a6"/>
    <path id="Path_4927" data-name="Path 4927" d="M619.59,651.065c-23.088,1.525-63.671-2.293-65.213-6.56-5.32-14.765-1.559-19.35-5.994-41.954L559.529,571.2s-1.853,34.917,8.441,44.1,42.155,17.744,47.158,25.419a28.092,28.092,0,0,1,4.462,10.343" transform="translate(-9434 1777.64)" fill="#2d9463"/>
    <path id="Path_4928" data-name="Path 4928" d="M593.143,636.37s22.779-5.063,26.453-3.041,12.654,9.387,13.778,11.949-8.182-1.948-11.208-2.76c-1.961-.526-7.122,1.265-9.676,2.115-10.751,3.58-17.338,1.735-17.338,1.735Z" transform="translate(-9434 1777.64)" fill="#ffb27d"/>
    <path id="Path_4929" data-name="Path 4929" d="M577.933,508.7s-30.583,1.874-41.176,16.636c-14.91,20.782-44.506,109.358-27.566,121.178,19.077,13.312,86.843,3.511,86.843,3.511s2.258-10.539-.877-15.639-54.119-13.353-56.471-15.707,29.43-45.876,29.433-52.936,9.814-57.043,9.814-57.043" transform="translate(-9434 1777.64)" fill="#97d6a6"/>
    <path id="Path_4930" data-name="Path 4930" d="M620.7,639.669s4.771,6.158,6.335,6.893a4.661,4.661,0,0,0,2.575.552l-3.214-5.789Z" transform="translate(-9434 1777.64)" fill="#ffb27d"/>
    <path id="Path_4931" data-name="Path 4931" d="M619.6,633.329l13.873,6.743a2.473,2.473,0,0,1-2.3.887,33.121,33.121,0,0,1-6.017-1.656Z" transform="translate(-9434 1777.64)" fill="#ffb27d"/>
    <path id="Path_4932" data-name="Path 4932" d="M738.075,649.21l-144.937-.05v3.2l143.649.05Z" transform="translate(-9434 1777.64)" fill="#233862"/>
    <path id="Path_4933" data-name="Path 4933" d="M627.029,652.371l109.758.038,33.046-82.094-109.589-.037Z" transform="translate(-9434 1777.64)" fill="#233862"/>
    <path id="Path_4934" data-name="Path 4934" d="M709.095,611.346c.828-2.886-.84-5.226-3.726-5.226a7.488,7.488,0,0,0-6.726,5.224c-.829,2.885.84,5.225,3.725,5.227a7.489,7.489,0,0,0,6.727-5.225" transform="translate(-9434 1777.64)" fill="#fff"/>
    <path id="Path_4935" data-name="Path 4935" d="M1451.91,961.991c-14.788-4.91-25.023,1.287-25.023,1.287-42.573,1.749-44.154,45.386-39.156,61.626,7.019,22.808-17.817,40.793,9.727,50.023,31.96,10.71,58.777-2,56.948,3.52,101.068,7.964,31.131-105.289-2.5-116.456" transform="translate(-9434 1777.64)" fill="#163560"/>
    <path id="Path_4936" data-name="Path 4936" d="M1407.753,1174.23a111.566,111.566,0,0,1-11.383,17.214c-8.843,11.076-55.26-15.215-51.261-17.214s27.324-69.195,32.875-77.64,24.485-12.828,24.485-12.828Z" transform="translate(-9434 1777.64)" fill="#97d6a6"/>
    <path id="Path_4937" data-name="Path 4937" d="M1564.393,1627.437s12.811,11.691,10.312,20-14.062,13.846-15.624,24-7.812,15.691-13.436,15.691H1518.83s-4.14-7.145,5.859-9.3,13.768-14.085,13.143-25.161.938-25.845.938-25.845l21.248-4.923Z" transform="translate(-9434 1777.64)" fill="#1f447f"/>
    <path id="Path_4938" data-name="Path 4938" d="M1455.958,1632.4s4.609,49.529-1.015,52.3l-71.98-.148s0-8.307,11.56-10.153,31.873-8.615,35.31-23.691,26.125-18.307,26.125-18.307" transform="translate(-9434 1777.64)" fill="#1c3154"/>
    <path id="Path_4939" data-name="Path 4939" d="M1511.329,1140.822a286.6,286.6,0,0,1,0,33.27c-.713,12.029-12.881,28.141-14.607,32.126-4.332,10-9.217,11.624-9.217,11.624l-37.793,9.262-13.289,3.253-41.906-12.515s-19.085-53.275-11.422-83.264,19.374-50.816,19.374-50.816,28.477-6.4,78.718-2.838Z" transform="translate(-9434 1777.64)" fill="#97d6a6"/>
    <path id="Path_4940" data-name="Path 4940" d="M1514.929,1174.512c-.713,12.029-16.48,27.721-18.207,31.706-4.332,10-9.217,11.623-9.217,11.623l-37.793,9.263-6.824-19.558s55.222-14.506,46.339-65.615Z" transform="translate(-9434 1777.64)" fill="#2d9463"/>
    <path id="Path_4941" data-name="Path 4941" d="M1397.184,1225.927s-20.753,64.595-22.086,86.587,39.67,312.419,41.319,322.553c1.555,9.551,13.416,15.64,13.416,15.64a17.95,17.95,0,0,0,13.242,1.02c10.8-3.05,14.216-6.7,14.216-6.7s16.153-207.131,6.158-281.121a1172.084,1172.084,0,0,1-10.115-137.977Z" transform="translate(-9434 1777.64)" fill="#233862"/>
    <path id="Path_4942" data-name="Path 4942" d="M1485.107,1224s31.656,42.474,34.607,71.186,4.63,129.564,10.917,157.554,29.387,81.856,29.387,169.157c0,0-2.4,5-9.814,7.669a80.63,80.63,0,0,1-8.632,2.387,13.57,13.57,0,0,1-15.178-7.2c-15.617-31.444-65.364-132.859-67.915-153.911-1.805-14.9-17.512-113.5-51.775-171.355-8.226-13.89,5.049-69.128,5.049-69.128Z" transform="translate(-9434 1777.64)" fill="#1757d1"/>
    <path id="Path_4943" data-name="Path 4943" d="M1393.869,1215.956s8.33,6.591,24.881,6.924c19.767.4,68.753-5.04,68.753-5.04a40.5,40.5,0,0,1,2.088,12.5s-59.826,15.091-94.492,2.2c0,0-4.469-8.412-1.23-16.59" transform="translate(-9434 1777.64)" fill="#233862"/>
    <path id="Path_4944" data-name="Path 4944" d="M1414.007,1239.915c-4.974,0-9.021-4.579-9.021-10.209s4.047-10.21,9.021-10.21,9.021,4.58,9.021,10.21-4.047,10.209-9.021,10.209m0-17.429c-3.325,0-6.031,3.238-6.031,7.22s2.706,7.219,6.031,7.219,6.03-3.238,6.03-7.219-2.7-7.22-6.03-7.22" transform="translate(-9434 1777.64)" fill="#fff"/>
    <path id="Path_4945" data-name="Path 4945" d="M1457.228,1258.486l-89.919.842-44.248-103.987,89.92-.839Z" transform="translate(-9434 1777.64)" fill="#2d9463"/>
    <path id="Path_4946" data-name="Path 4946" d="M1445.468,1211.5l-6.591-8.1s-4.461-3.978-7.7-4.654-10.071-4.618-10.734-3.508,5.251,9.034,5.251,9.034l.3.043c-6.789,5.106-23.928.6-26.044,2.682-2.564,2.524,3.53,7.982,6.8,11.047s12.618,8.174,19.908,5.9c5.329-1.659,13.714-3.346,13.714-3.346Z" transform="translate(-9434 1777.64)" fill="#ffb27d"/>
    <path id="Path_4947" data-name="Path 4947" d="M1329.825,1173.634s5.65-6.422,9.248-3.34-.943,18.237-4.367,16.7-6.851-11.472-4.881-13.356" transform="translate(-9434 1777.64)" fill="#ffb27d"/>
    <path id="Path_4948" data-name="Path 4948" d="M1481.188,1080.923s25.741,2.84,44.214,36.4c14.567,26.468,39.471,75.261,30.073,89.043-4.125,6.052-43.669,27.582-119.94,15.276,0,0,1.2-9.634,7.353-14.1,0,0,64.187-20.607,64.077-24.707-.208-7.755-8.673-14.455-44.528-50.32-9.747-9.751,18.751-51.6,18.751-51.6" transform="translate(-9434 1777.64)" fill="#97d6a6"/>
    <path id="Path_4949" data-name="Path 4949" d="M1461.377,1082.284c.884-1.187-.254-4.969-1.668-12.011-1.28-6.38-3.453-16.247-3.406-27.347l-1.9.318-31.9,5.367s.726,8.53.747,16.566c0,.067,0,.134,0,.2.039,6.978-1.883,17.525.471,18.9,12.089,7.083,34.254,2.569,37.656-2" transform="translate(-9434 1777.64)" fill="#ffb27d"/>
    <path id="Path_4950" data-name="Path 4950" d="M1422.5,1048.611s.635,12.028.656,20.064c17.853-.427,27.381-17.762,31.247-25.431Z" transform="translate(-9434 1777.64)" fill="#e8945b"/>
    <path id="Path_4951" data-name="Path 4951" d="M1420.577,1062.957s41.821-5.957,37.711-31.945-1.481-44.26-28.358-41.555-30.482,13.44-31.221,22.447,10.882,51.932,21.868,51.053" transform="translate(-9434 1777.64)" fill="#ffb27d"/>
    <path id="Path_4952" data-name="Path 4952" d="M1410.831,991.846s16.277,28.664,34.522,30.38,25.1-4.193,25.1-4.193a50.264,50.264,0,0,1-20.905-26.738s-32.414-15.33-38.718.551" transform="translate(-9434 1777.64)" fill="#163560"/>
    <path id="Path_4953" data-name="Path 4953" d="M1414.056,993.87s-7.965,4.516-10.466,11.247a42.529,42.529,0,0,0-1.839,24.753s-11.905-19.349-4.1-32.61c8.273-14.063,16.407-3.39,16.407-3.39" transform="translate(-9434 1777.64)" fill="#163560"/>
    <path id="Path_4954" data-name="Path 4954" d="M2335.5,1690.86H17.152a2.906,2.906,0,0,1-2.9-2.9v-1.671a2.907,2.907,0,0,1,2.9-2.9H2335.5a2.907,2.907,0,0,1,2.9,2.9v1.671a2.906,2.906,0,0,1-2.9,2.9" transform="translate(-9434 1777.64)" fill="#233862"/>
  </g>
</svg>
