<svg width="20" height="20" viewBox="0 0 20 20" fill="none" xmlns="http://www.w3.org/2000/svg">
<path fill-rule="evenodd" clip-rule="evenodd" d="M17.4058 6.50136L17.4043 6.50302L17.4058 6.50421L17.4025 6.50494C17.3801 6.52927 17.3596 6.55197 17.3402 6.57342C17.3 6.6179 17.2646 6.65699 17.2276 6.69411C15.0317 8.89675 12.8355 11.099 10.6392 13.3012L10.6356 13.3047L10.6356 13.3047L10.6356 13.3048C10.5683 13.3722 10.5008 13.4398 10.43 13.5035C10.1336 13.7697 9.84162 13.7648 9.56183 13.4858C9.4132 13.3377 9.26584 13.1882 9.11848 13.0387C8.98202 12.9003 8.84555 12.7619 8.70807 12.6245C7.72693 11.644 6.74564 10.6636 5.76434 9.68326L5.75971 9.67863L5.75507 9.67399C4.73364 8.65352 3.71222 7.63305 2.69097 6.61241C2.67145 6.59291 2.65451 6.57069 2.6353 6.54551C2.62608 6.53341 2.61633 6.52063 2.60553 6.50714L2.6044 6.50692L2.60504 6.50648L2.60444 6.50569L2.60632 6.50501L2.6082 6.50433C2.63025 6.48933 2.65049 6.47531 2.66964 6.46206C2.71002 6.43411 2.74549 6.40956 2.78259 6.38625C4.97847 5.00708 7.17468 3.6281 9.37105 2.24924L9.37438 2.24715C9.44178 2.20484 9.50929 2.16245 9.58025 2.12254C9.87662 1.95585 10.1686 1.95895 10.4484 2.13361C10.5966 2.22617 10.7436 2.31952 10.8907 2.41288L10.8908 2.413C11.0276 2.49985 11.1644 2.58669 11.3021 2.6729C12.2966 3.29522 13.2913 3.91744 14.2859 4.53965L14.2913 4.54298L14.293 4.5441C15.3018 5.17516 16.3106 5.80622 17.3192 6.43739C17.3389 6.44969 17.3562 6.46385 17.3757 6.47982C17.3833 6.48611 17.3913 6.49267 17.4 6.49952C17.4019 6.50025 17.4039 6.50063 17.4058 6.50136ZM17.389 17.8628L12.4045 12.9168L12.4036 12.9191C12.4008 12.9267 12.3924 12.9502 12.3764 12.9662C12.205 13.1387 12.033 13.3106 11.8611 13.4826C11.61 13.7337 11.3589 13.9848 11.1094 14.2374C10.5063 14.8479 9.43861 14.8552 8.83959 14.1767C8.71133 14.0314 8.57362 13.8941 8.4358 13.7576C8.22858 13.5524 8.01985 13.3486 7.82203 13.1556L7.59127 12.9302L2.57921 17.8976C2.67329 17.9095 2.76349 17.9237 2.85108 17.9374C3.03338 17.9659 3.20439 17.9927 3.37562 17.9941C4.25015 18.0014 5.12475 18.0003 5.99935 17.9992C6.31182 17.9989 6.62429 17.9985 6.93676 17.9985L8.91139 17.9985C11.4798 17.9986 14.0483 17.9986 16.6168 17.9978C16.8805 17.9977 17.1411 17.9712 17.389 17.8628ZM6.82388 12.2226L1.83529 17.1423C1.82196 17.0715 1.80517 17.0013 1.78847 16.9314L1.78847 16.9314C1.75283 16.7823 1.7176 16.6348 1.71719 16.4872C1.70928 13.6176 1.70945 10.748 1.71695 7.87836C1.71733 7.73317 1.751 7.58806 1.7849 7.44202C1.80072 7.37384 1.81659 7.30546 1.82914 7.23677L6.82388 12.2226ZM13.1258 12.2057L18.1698 17.1437C18.182 17.0771 18.1976 17.0098 18.2134 16.942C18.2477 16.7947 18.2826 16.6452 18.283 16.4955C18.2907 13.6254 18.2906 10.7553 18.2828 7.88521C18.2824 7.73485 18.2466 7.58459 18.2128 7.44241C18.1976 7.37883 18.1829 7.31686 18.1718 7.25722L13.1258 12.2057Z" fill="#0057D1"/>
</svg>
