<?xml version="1.0" encoding="UTF-8"?>
<svg data-name="Layer 1" xmlns="http://www.w3.org/2000/svg" viewBox="0 0 30 30">
  <rect x=".0884" y="23.8309" width="29.8233" height="6.1691" fill="#54585D"></rect>
  <path d="m25.931,4.4543l-3.928-3.7782c-.9636-.9269-2.4962-.8971-3.4231.0665L7.3606,12.4065c-.9268.9637-.8971,2.4963.0665,3.4232l-4.1009,4.4526h9.6924l-.0029-.0036c.6413.0046,1.283-.2386,1.7627-.7373l11.2191-11.6639c.927-.9637.8972-2.4963-.0665-3.4232Zm-7.8282,8.8959l-3.3998,3.5345c-.9268.9637-2.4595.9934-3.4231.0665l-1.1951-1.1494c-.9636-.9269-.9934-2.4595-.0665-3.4232l3.3997-3.5346c.927-.9637,2.4596-.9934,3.4233-.0665l1.1949,1.1494c.9637.9269.9934,2.4595.0665,3.4232Z" fill="#3b3e3d"></path>
</svg>
