<svg height="405pt" viewBox="-32 0 405 405.33867" width="405pt" xmlns="http://www.w3.org/2000/svg"><path d="m338.378906 323.128906c-39.546875-39.542968-39.546875-57.523437-39.546875-99.128906v-53.332031c-.085937-54.519531-34.667969-103.011719-86.183593-120.855469.492187-2.351562.777343-4.742188.851562-7.144531 0-23.566407-19.101562-42.667969-42.667969-42.667969-23.5625 0-42.664062 19.101562-42.664062 42.667969.074219 2.402343.363281 4.796875.859375 7.152343-51.519532 17.839844-86.101563 66.328126-86.195313 120.847657v53.332031c0 41.601562 0 59.585938-39.542969 99.128906-3.046874 3.050782-3.957031 7.636719-2.308593 11.621094 1.652343 3.984375 5.539062 6.582031 9.851562 6.582031h320c4.316407 0 8.203125-2.597656 9.855469-6.582031 1.652344-3.988281.738281-8.574219-2.3125-11.625zm-146.675781-278.609375c-13.804687-2.476562-27.933594-2.476562-41.738281 0-.058594-.625-.464844-1.230469-.464844-1.851562 0-11.785157 9.550781-21.335938 21.332031-21.335938 11.785157 0 21.335938 9.550781 21.335938 21.335938 0 .621093-.40625 1.226562-.464844 1.851562zm0 0"/><path d="m170.832031 405.339844c23.550781-.03125 42.636719-19.117188 42.667969-42.667969h-85.332031c.03125 23.550781 19.113281 42.636719 42.664062 42.667969zm0 0"/></svg>