<?xml version="1.0" encoding="UTF-8"?>
<svg id="uuid-5668186e-c117-420d-a31a-a97d6060a06b" data-name="Layer 1" xmlns="http://www.w3.org/2000/svg" viewBox="0 0 33.2052 30">
  <defs>
    <style>
      .uuid-4154708e-eab6-41e8-bc86-0ee23fe83355 {
        fill: #3b3e3d;
        stroke-width: 0px;
      }
    </style>
  </defs>
  <g id="uuid-5afcc2f4-1128-4f62-aeb3-465af457e857" data-name="Group 8942">
    <path id="uuid-ae6c05ec-c075-4c6f-911a-8fa7b9db5fc5" data-name="Path 6850" class="uuid-4154708e-eab6-41e8-bc86-0ee23fe83355" d="m1.7665,13.6687c-.0067-.2994.0722-.5946.2276-.8507.1345-.2148.373-.3419.6263-.3339.2511-.018.4967.079.6678.2637.1565.1998.2354.4494.2222.7029-.0146.2568-.09.5065-.2201.7284-.2028.344-.4424.6649-.7146.957L.0949,17.7062v1.0931h5.2868v-1.243h-2.871l-.0159-.0606,1.0325-1.1197c.4974-.521.9592-1.0748,1.3823-1.6577.252-.3796.3826-.8268.3743-1.2824.0313-.6418-.2275-1.2638-.705-1.6939-.5553-.441-1.254-.6614-1.9618-.6189-.7088-.0315-1.3983.2354-1.9012.7358C.244,12.3304-.007,12.9791.0247,13.6453l.0106.0245h1.7311v-.0011Z"/>
    <path id="uuid-39304cb7-c71c-4e3c-92a4-226d799d70bc" data-name="Path 6851" class="uuid-4154708e-eab6-41e8-bc86-0ee23fe83355" d="m1.8069,5.8927H.096v1.3993h5.2868v-1.3993h-1.7109V-.4181L.096.1135v1.2675h1.7109v4.5117Z"/>
    <path id="uuid-bc94e925-93dd-4bc9-8648-a2a6cc6064cf" data-name="Path 6852" class="uuid-4154708e-eab6-41e8-bc86-0ee23fe83355" d="m4.2078,26.3978c.3413-.1497.638-.3853.8613-.6837.2082-.2755.3203-.6117.319-.957.0309-.6265-.2472-1.2284-.7443-1.6109-.5804-.4045-1.2787-.6046-1.9852-.5689-.6522-.0192-1.2921.1799-1.8183.5657-.4804.3461-.751.9134-.7177,1.5046l.0106.0585h1.7226c-.0272-.2159.0753-.4276.2616-.5402.173-.1366.3867-.2115.6072-.2127.2475-.0196.4916.0675.671.2393.1534.1631.2363.3801.2307.604.0154.267-.0769.529-.2563.7273-.1975.1864-.4624.2843-.7337.2712h-.8294v1.2441h.8294c.2976-.0127.5894.0846.8198.2733.2111.2178.317.5166.2903.8188.0065.251-.0945.4928-.2775.6646-.4147.3603-1.0337.3521-1.4387-.0191-.1963-.1568-.3028-.4002-.285-.6508H.0162l-.0106.067c-.0506.649.2453,1.2765.7784,1.6503.5505.3828,1.2074.5829,1.8778.5721.7295.0318,1.4492-.1775,2.048-.5955.5247-.3791.8258-.9949.8028-1.6418.0103-.3937-.1114-.7796-.3456-1.0963-.2454-.3162-.5781-.5535-.957-.6827l-.0021-.0011Z"/>
    <rect id="uuid-aa8596ff-efac-4043-94fc-acf983f76c1d" data-name="Rectangle 8174" class="uuid-4154708e-eab6-41e8-bc86-0ee23fe83355" x="8.0262" y="22.5315" width="25.179" height="5.1316"/>
    <rect id="uuid-619641f0-761b-466c-9fe3-50c92f48dcbd" data-name="Rectangle 8175" class="uuid-4154708e-eab6-41e8-bc86-0ee23fe83355" x="8.0262" y="12.4236" width="25.179" height="5.1316"/>
    <rect id="uuid-56a52164-c603-4aeb-8f02-edcf5827d70d" data-name="Rectangle 8176" class="uuid-4154708e-eab6-41e8-bc86-0ee23fe83355" x="8.0262" y="2.0062" width="25.179" height="5.1316"/>
  </g>
</svg>