<svg width="34" height="30" viewBox="0 0 34 30" fill="none" xmlns="http://www.w3.org/2000/svg">
<g clip-path="url(#clip0_2006_555)">
<g clip-path="url(#clip1_2006_555)">
<path d="M33.5556 19.946H11.5556V24.946H33.5556V19.946Z" fill="#3B3E3D"/>
<path d="M33.5556 5.94604H11.5556V10.946H33.5556V5.94604Z" fill="#3B3E3D"/>
<path d="M6.53164 1H4.10852L1 4.02971L2.62267 5.84295C3.26268 5.25461 3.64369 4.82478 3.7657 4.55471H3.81142V4.84107C3.81142 5.47721 3.80741 6.43923 3.79989 7.72764C3.7922 9.01588 3.78836 9.986 3.78836 10.6381H1.3425V13H9V10.6381H6.53164V1Z" fill="#3B3E3D"/>
<path d="M6.43202 26.4857H3.32592C3.34245 26.0624 3.63182 25.6181 4.19436 25.1531C4.7569 24.6878 5.37195 24.2605 6.0408 23.871C6.70905 23.4814 7.32051 22.936 7.875 22.2336C8.42941 21.5311 8.70652 20.7566 8.70652 19.9103C8.70652 18.7084 8.29903 17.7562 7.48387 17.0537C6.66888 16.3514 5.66586 16 4.47567 16C3.52979 16 2.66966 16.2412 1.89519 16.7237C1.1208 17.2061 0.538043 17.879 0.146653 18.7425L2.22567 20.2405C2.79644 19.2585 3.45672 18.7678 4.20661 18.7678C4.61453 18.7678 4.93645 18.8821 5.17296 19.1105C5.40913 19.3394 5.52769 19.665 5.52769 20.0882C5.52769 20.4775 5.33598 20.8584 4.95281 21.2307C4.56947 21.6031 4.10895 21.9712 3.57074 22.3352C3.03278 22.6992 2.49457 23.1013 1.95669 23.5413C1.41874 23.9815 0.957788 24.5567 0.574621 25.2676C0.191626 25.9785 0 26.7658 0 27.629C0 27.9335 0.048913 28.3906 0.146568 29H9V24.9624V24.962H6.43202V26.4857Z" fill="#3B3E3D"/>
</g>
</g>
<defs>
<clipPath id="clip0_2006_555">
<rect width="34" height="30" fill="white"/>
</clipPath>
<clipPath id="clip1_2006_555">
<rect width="33.5556" height="30" fill="white"/>
</clipPath>
</defs>
</svg>
