<svg id="Group_5578" data-name="Group 5578" xmlns="http://www.w3.org/2000/svg" xmlns:xlink="http://www.w3.org/1999/xlink" width="55.98" height="55.98" viewBox="0 0 55.98 55.98">
  <defs>
    <clipPath id="clip-path">
      <rect id="Rectangle_2783" data-name="Rectangle 2783" width="55.98" height="55.98" fill="#0057d1"/>
    </clipPath>
  </defs>
  <g id="Group_5578-2" data-name="Group 5578" clip-path="url(#clip-path)">
    <path id="Path_4517" data-name="Path 4517" d="M26.151.059A27.988,27.988,0,0,0,10.369,49.732L18.448,31H8.929l2.107-4.414h9.316l4.63-10.735L30,17.958l-3.62,8.628h8.134V31H24.526L15.319,52.945A27.99,27.99,0,1,0,26.151.059M40.882,31.2l-2.558-.3s2.408-7.123-2.157-11.988A23.783,23.783,0,0,0,25.683,12.59l1.2-2.307s7.775,2.107,11.337,6.772S42.187,24.73,40.882,31.2m4.715,0H42.839c1.4-8.678-.05-10.885-2.608-14.8S27.74,8.929,27.74,8.929l1.033-1.956A27.555,27.555,0,0,1,43.039,15.5C48.256,21.118,45.6,31.2,45.6,31.2m2.257,0a19.548,19.548,0,0,0-3.21-17.155C39.177,6.772,29.6,5.467,29.6,5.467L30.8,3.21s8.477.552,15.7,9.029S50.814,31.2,50.814,31.2Z" transform="translate(0 0)" fill="#0057d1"/>
  </g>
</svg>
