<?xml version="1.0" encoding="UTF-8"?>
<svg id="uuid-62ff101f-15b9-4a45-bb34-60a491701881" data-name="Layer 1" xmlns="http://www.w3.org/2000/svg" viewBox="0 0 30 30">
  <defs>
    <style>
      .uuid-d402cb89-1d9c-428a-9bd1-520d17a623b8 {
        fill: #3b3e3d;
        stroke-width: 0px;
      }
    </style>
  </defs>
  <g id="uuid-f37f32b1-bce9-4ec9-9edb-3686ca982e89" data-name="Group 6656">
    <path id="uuid-2c9e2f9b-1cbe-45f2-8c20-3531b039d2ed" data-name="Path 4893" class="uuid-d402cb89-1d9c-428a-9bd1-520d17a623b8" d="m27.9329,1.4257v16.1013c-.0262.0581-.0459.1189-.0588.1814-.069.8219-.7792,1.4398-1.6028,1.3945-3.9105,0-7.8207,0-11.7304,0-.831.0491-1.5444-.5847-1.5935-1.4157-.0037-.0619-.0035-.124.0005-.1859V1.5973c-.0518-.8274.577-1.5401,1.4044-1.5919.0558-.0035.1118-.0039.1677-.0011C18.4371-.0014,22.3538-.0014,26.2701.0043c.2555.001.5081.054.7426.1556.5455.2118.8921.7514.8578,1.3356l.0625-.0698m-7.4968,10.5774h4.002c.2979.0181.5541-.2087.5721-.5066v-.0019c.0346-.2961-.171-.5666-.4655-.6127-.1298-.0192-.261-.027-.3921-.0233h-7.6879c-.3149-.0171-.584.2244-.6011.5393-.0171.3149.2244.584.5393.6011.0173.0009.0347.0011.052.0004h3.9824m.0135,3.7888h3.9824c.2998.0198.559-.2071.5788-.5069.0003-.005.0006-.01.0008-.0151.0263-.296-.1847-.5604-.4791-.6004-.1218-.0167-.2447-.0232-.3676-.0196h-7.6683c-.2508-.0205-.4855.1252-.5784.359-.1203.2878.0154.6187.3033.7391.0796.0333.1657.0479.2518.0427h3.9824m0-7.5777h3.9984c.2824.0253.5319-.1832.5572-.4656.0007-.0082.0013-.0164.0016-.0245.0397-.2941-.158-.5677-.4497-.6225-.129-.0227-.2599-.0326-.3909-.0294h-7.7014c-.315-.0146-.5823.2289-.5969.544-.0146.315.2289.5822.544.5969.0176.0008.0353.0008.0529,0h3.9788m.038-4.8953h-3.904c-.0724-.0027-.1449-.0003-.2169.0074-.2809.0336-.4888.2773-.4779.56.0013.2743.2048.5055.4767.5416.143.0182.2871.0268.4313.0257h7.411c.0855.0007.171-.0034.2561-.0123.3118-.0111.5556-.2728.5445-.5846-.0005-.0135-.0014-.0269-.0029-.0404-.0374-.2977-.297-.5168-.5968-.5036-1.3075.0147-2.6149,0-3.9212,0"/>
    <path id="uuid-9a339a40-1705-4743-98f4-056c65018923" data-name="Path 4894" class="uuid-d402cb89-1d9c-428a-9bd1-520d17a623b8" d="m3.2136,30l.0453-.0417c-.2064-.0809-.4049-.1806-.5931-.2978-.4059-.317-.6289-.8143-.5955-1.3283v-15.7043c-.0022-.1972.0196-.3938.0649-.5857.1483-.6866.7686-1.1673,1.4704-1.1396h8.2296v3.2705h-.2071l-5.992.0061c-.3133-.0466-.605.1696-.6516.4828-.0155.1041-.002.2105.0389.3075.0859.2299.3142.3746.5588.3541h6.242v2.626c-.0539,0-.1042.0086-.1532.0086l-6.0472.0061c-.3137-.0385-.5992.1847-.6376.4984-.0118.0961.001.1936.0372.2834.0693.2127.2664.3576.4901.3603.1372.0061.2757,0,.4142,0h6.1109c.1536-.0101.3019.0587.3933.1826.4696.5734,1.1681.9105,1.9091.9215.8075.0196,1.6163,0,2.425,0h.2316c0,.0797.0147.1434.0147.2059v7.9502c.0342.6279-.3212,1.2121-.8945,1.4704-.1225.06-.2451.1054-.3676.1568l-12.5367.0061Zm6.3596-3.3428h3.431c.2169,0,.4338.0073.6494-.0061.2172-.0108.4013-.1635.4522-.375.1078-.2956-.0445-.6227-.3401-.7305-.0871-.0318-.1807-.0418-.2726-.0292h-7.8632c-.0657-.001-.1314.0043-.1961.0159-.2626.0485-.4517.2795-.4473.5465-.0125.2738.1772.5155.446.5686.1173.0158.2358.0215.3541.0172h3.7864m-.0098-3.7606h4.002c.2982.0117.5495-.2205.5612-.5188,0-.0003,0-.0005,0-.0008.0265-.2878-.1733-.5474-.4583-.5955-.1293-.0203-.2601-.0289-.3909-.0257h-7.6879c-.3149-.0162-.5834.226-.5996.5409s.226.5834.5409.5996c.0175.0009.035.001.0525.0003h3.9824"/>
    <path id="uuid-64982abb-95f2-4cd3-a86e-e9c9635151a7" data-name="Path 4895" class="uuid-d402cb89-1d9c-428a-9bd1-520d17a623b8" d="m22.9543,27.1449c.098.2549.1948.5122.2978.7683.0903.1439.0759.33-.0355.4583-.1211.1078-.2952.132-.4411.0613-.8545-.2328-1.7082-.4669-2.561-.7021-.2451-.0674-.4901-.1225-.7352-.2059-.2867-.0931-.3676-.2843-.2083-.5306.6535-1.0097,1.3111-2.0157,1.9728-3.0181.0729-.1451.2497-.2037.3948-.1308.0732.0368.1277.1024.1505.181.1127.2365.2046.4828.2941.7352.0539.1483.1225.1789.2634.098.746-.4455,1.4241-.996,2.0133-1.6346.6145-.6315,1.1675-1.32,1.6518-2.0562.0282-.0441.0539-.1017.0956-.1225.0642-.0367.1389-.0506.212-.0392.0547.0381.0865.1012.0846.1679-.0417.3051-.0858.6127-.1556.9117-.2659,1.2023-.7655,2.3406-1.4704,3.3501-.4359.661-1.0172,1.2134-1.6996,1.615-.034.0196-.0667.0413-.098.0649-.0096.01-.0175.0216-.0233.0343"/>
    <path id="uuid-b7cb7112-91c8-4662-993d-6903db42f3e3" data-name="Path 4896" class="uuid-d402cb89-1d9c-428a-9bd1-520d17a623b8" d="m7.0649,2.8741l-.3125-.8063c-.087-.1385-.072-.3178.0368-.4399.1225-.106.2961-.1296.4424-.06l2.7326.7475c.1703.0466.3431.0895.5122.1397.3505.1042.4289.2978.2328.6053-.388.6094-.781,1.216-1.1788,1.8197-.234.3566-.473.7107-.7205,1.0587-.2267.3198-.4705.2953-.6298-.0613-.0993-.2218-.1899-.4473-.2708-.6764-.0515-.147-.1225-.1556-.2451-.0858-.7799.4255-1.4765.9884-2.0562,1.6616-.5465.6188-1.0269,1.2964-1.5354,1.9471l-.011.0159c-.0956.1287-.1752.3308-.3676.2451-.1765-.0747-.0784-.2671-.06-.4056.2607-1.779,1.0364-3.4428,2.2314-4.7863.2968-.3447.6571-.6293,1.0612-.8381.0453-.0245.0895-.0527.1446-.0858"/>
  </g>
</svg>