<svg id="blue-check-icon" xmlns="http://www.w3.org/2000/svg" xmlns:xlink="http://www.w3.org/1999/xlink" width="20.236" height="20.24" viewBox="0 0 20.236 20.24">
  <defs>
    <clipPath id="clip-path">
      <rect id="Rectangle_3220" data-name="Rectangle 3220" width="20.236" height="20.24" fill="#4987df"/>
    </clipPath>
  </defs>
  <g id="Group_6025" data-name="Group 6025" clip-path="url(#clip-path)">
    <path id="Path_4632" data-name="Path 4632" d="M0,10.113A10.118,10.118,0,1,1,10.009,20.239,10.113,10.113,0,0,1,0,10.113m8.069,1.651a2.458,2.458,0,0,0-.181-.24c-.367-.374-.735-.749-1.109-1.116a1,1,0,0,0-1.173-.179,1.011,1.011,0,0,0-.236,1.636c.638.65,1.286,1.289,1.929,1.933a1.021,1.021,0,0,0,1.582.005q1.738-1.735,3.473-3.473,1.24-1.24,2.482-2.48a1.017,1.017,0,0,0,.339-.868.959.959,0,0,0-.66-.849,1,1,0,0,0-1.109.273Q11.3,8.522,9.186,10.636c-.356.357-.71.717-1.117,1.128" transform="translate(0 0.001)" fill="#4987df"/>
  </g>
</svg>
