<svg xmlns="http://www.w3.org/2000/svg" width="28" height="28" viewBox="0 0 28 28">
  <g id="blue-icon" transform="translate(-127 -680)">
    <rect id="Rectangle_3253" data-name="Rectangle 3253" width="28" height="28" rx="3" transform="translate(127 680)" fill="#4286f5"/>
    <g id="Group_6065" data-name="Group 6065" transform="translate(133 687)">
      <path id="Path_4657" data-name="Path 4657" d="M15.865,19.17H.026c-.006-.094-.019-.182-.019-.27,0-1.444,0-2.889-.007-4.333a.488.488,0,0,1,.247-.455,1.547,1.547,0,0,1,1.943.138,1.682,1.682,0,0,0,2.43,0,1.551,1.551,0,0,1,2.112,0,1.606,1.606,0,0,0,2.393.01,1.588,1.588,0,0,1,2.141,0,1.605,1.605,0,0,0,2.393,0,1.6,1.6,0,0,1,1.441-.369c.58.117.764.355.764.946v4.34Z" transform="translate(0 -5.336)" fill="#fff"/>
      <path id="Path_4658" data-name="Path 4658" d="M2.686,7.864v-1.4H1.3V5.542H4.2V4.073H2.837V3.145c.111-.006.212-.013.313-.013,2.323,0,4.645,0,6.967-.01a.408.408,0,0,1,.448.306c.247.61.535,1.2.774,1.816a.39.39,0,0,0,.459.289,7.353,7.353,0,0,1,.867,0,.32.32,0,0,1,.243.121c.326.719.637,1.446.969,2.21Z" transform="translate(-0.269 -3.121)" fill="#fff"/>
      <path id="Path_4659" data-name="Path 4659" d="M.656,12.266c.124-.608.233-1.184.367-1.755.018-.08.158-.136.246-.2.021-.015.06,0,.091,0H15.827a1.782,1.782,0,0,1-.032.377c-.113.363-.229.725-.371,1.076-.107.265-.225.48-.622.427a1.316,1.316,0,0,0-1.03.418,1.6,1.6,0,0,1-2.325.025,1.575,1.575,0,0,0-2.229,0,1.6,1.6,0,0,1-2.3-.006,1.574,1.574,0,0,0-2.207-.013,1.6,1.6,0,0,1-2.349-.012,1.533,1.533,0,0,0-1.371-.4c-.1.02-.209.035-.332.055" transform="translate(-0.136 -4.607)" fill="#fff"/>
    </g>
  </g>
</svg>
