<svg xmlns="http://www.w3.org/2000/svg" width="28" height="28" viewBox="0 0 28 28">
  <g id="green-icon" transform="translate(-252 -680)">
    <rect id="Rectangle_3250" data-name="Rectangle 3250" width="28" height="28" rx="3" transform="translate(252 680)" fill="#34a953"/>
    <g id="Group_6062" data-name="Group 6062" transform="translate(258 685)">
      <path id="Path_4652" data-name="Path 4652" d="M93.5,4.866c.04.026.049.038.057.036a2.714,2.714,0,0,1,2.475,1.13c.742.812,1.543,1.571,2.334,2.337a.806.806,0,0,0,.505.206c1.5.017,3.01,0,4.514.014a1.755,1.755,0,0,1,1.765,1.626,1.784,1.784,0,0,1-1.379,1.868,2,2,0,0,1-.473.042c-1.981,0-3.964.007-5.946-.007a.79.79,0,0,1-.5-.217q-2.119-2.138-4.21-4.3a.691.691,0,0,0-.6-.254c-.617.057-1.24.068-1.851.159a3.579,3.579,0,0,0-.83.351,2.382,2.382,0,0,1,2.555-2.964,2.753,2.753,0,0,1-1.508-1.368,2.442,2.442,0,0,1-.048-1.959,2.485,2.485,0,0,1,4.732.377c.266,1.192-.266,2.182-1.59,2.925" transform="translate(-89.307 0)" fill="#fff"/>
      <path id="Path_4653" data-name="Path 4653" d="M89.341,16.117a4.31,4.31,0,0,0,2.848.586c1.256-.006,2.513,0,3.793,0v5.415H89.341Z" transform="translate(-89.314 -3.333)" fill="#fff"/>
      <path id="Path_4654" data-name="Path 4654" d="M107.558,16.108c0,2.01,0,3.93,0,5.852a1.281,1.281,0,0,1-.021.155H100.9V16.7h.394c1.236,0,2.473-.013,3.708,0a3.943,3.943,0,0,0,2.554-.6" transform="translate(-91.704 -3.331)" fill="#fff"/>
      <path id="Path_4655" data-name="Path 4655" d="M104.9,4.884a2.414,2.414,0,0,1,2.535,2.993,3.123,3.123,0,0,0-.543-.263,5.345,5.345,0,0,0-1.2-.255c-1.136-.034-2.276-.055-3.41,0a1.638,1.638,0,0,1-1.574-.673,3.166,3.166,0,0,0-.282-.3c.775-.838,1.474-1.772,2.856-1.489a2.842,2.842,0,0,1-1.433-1.386,2.444,2.444,0,0,1-.051-1.924,2.479,2.479,0,0,1,4.757.46c.232,1.109-.335,2.108-1.65,2.832" transform="translate(-91.605 0)" fill="#fff"/>
      <path id="Path_4656" data-name="Path 4656" d="M95.226,14.361h-.241c-1.285,0-2.569,0-3.854,0a1.781,1.781,0,0,1-1.811-1.775A1.821,1.821,0,0,1,91.1,10.808a1.429,1.429,0,0,1,1.212.488c.973,1,1.992,1.953,2.993,2.924-.028.047-.055.094-.082.141" transform="translate(-89.309 -2.234)" fill="#fff"/>
    </g>
  </g>
</svg>
