<svg xmlns="http://www.w3.org/2000/svg" width="28" height="28" viewBox="0 0 28 28">
  <g id="red-icon" transform="translate(-170 -680)">
    <rect id="Rectangle_3252" data-name="Rectangle 3252" width="28" height="28" rx="3" transform="translate(170 680)" fill="#eb4335"/>
    <g id="Group_6064" data-name="Group 6064" transform="translate(176 686)">
      <path id="Path_4660" data-name="Path 4660" d="M35.18,11.1a6.54,6.54,0,0,1-1.057.487A1.875,1.875,0,0,1,31.881,10.4a.386.386,0,0,0-.447-.293c-.66.016-1.322.008-1.982,0A1.432,1.432,0,0,1,27.96,8.984a1.469,1.469,0,0,1,.792-1.654A.5.5,0,0,0,28.931,7a9.555,9.555,0,0,1,.224-1.545,2.888,2.888,0,0,1,2.7-1.912,3.529,3.529,0,0,0,1.072.01c.3-.107.487-.473.75-.695a3.753,3.753,0,0,1,5.442.514.435.435,0,0,0,.435.183,2.613,2.613,0,0,1,2.343,1.2,3.848,3.848,0,0,1,.844,2.712.464.464,0,0,0,.152.327,2.5,2.5,0,0,1,.712,2.81A2.453,2.453,0,0,1,41.2,12.2a3.292,3.292,0,0,1-1.146-.319,1.626,1.626,0,0,0-1.536,0,2.476,2.476,0,0,1-3.3-.738.2.2,0,0,0-.043-.04" transform="translate(-27.917 -1.922)" fill="#fff"/>
      <path id="Path_4661" data-name="Path 4661" d="M40.11,20.415H37.68C37.5,18.7,37.311,17,37.123,15.257c.424.212.777.387.93.878a3.608,3.608,0,0,0,1.875,2.159c.076.04.171.139.173.212.014.627.009,1.255.009,1.909" transform="translate(-29.82 -4.679)" fill="#fff"/>
      <path id="Path_4662" data-name="Path 4662" d="M39.469,15.936a3.865,3.865,0,0,0,1.924-.454.652.652,0,0,1,.523-.008,3.611,3.611,0,0,0,2.63.351,2.658,2.658,0,0,1-5.076.111" transform="translate(-30.305 -4.714)" fill="#fff"/>
    </g>
  </g>
</svg>
