<svg xmlns="http://www.w3.org/2000/svg" width="20" height="14.516" viewBox="0 0 20 14.516">
  <g id="Group_6095" data-name="Group 6095" transform="translate(-614 -988)">
    <path id="Path_4665" data-name="Path 4665" d="M13.614,14.514q-2.624,0-5.247,0c-.781,0-1.107-.342-1.088-1.125A5.417,5.417,0,0,1,12.442,8.2,15.782,15.782,0,0,1,16,8.4a5.27,5.27,0,0,1,4,5.1.886.886,0,0,1-1.011,1.019c-1.792,0-3.583,0-5.375,0" transform="translate(614 988)" fill="#fff"/>
    <path id="Path_4666" data-name="Path 4666" d="M9.08,3.594a3.615,3.615,0,0,1-3.632,3.66,3.653,3.653,0,0,1-3.631-3.63A3.615,3.615,0,0,1,5.485,0,3.585,3.585,0,0,1,9.08,3.594" transform="translate(614 988)" fill="#fff"/>
    <path id="Path_4667" data-name="Path 4667" d="M17.271,3.612a3.616,3.616,0,0,1-3.649,3.643,3.653,3.653,0,0,1-3.614-3.648,3.632,3.632,0,0,1,7.263,0" transform="translate(614 988)" fill="#fff"/>
    <path id="Path_4668" data-name="Path 4668" d="M7.568,8.479a7.1,7.1,0,0,0-2.019,6.009c-.1.009-.215.025-.326.025-1.4,0-2.812.005-4.22,0-.664,0-.962-.329-1-.995A5.021,5.021,0,0,1,4.269,8.243a6.7,6.7,0,0,1,3.3.236" transform="translate(614 988)" fill="#fff"/>
  </g>
</svg>
