<svg xmlns="http://www.w3.org/2000/svg" width="28" height="28" viewBox="0 0 28 28">
  <g id="yellow-icon" transform="translate(-209 -680)">
    <rect id="Rectangle_3251" data-name="Rectangle 3251" width="28" height="28" rx="3" transform="translate(209 680)" fill="#fcbd05"/>
    <g id="Group_6063" data-name="Group 6063" transform="translate(215 687)">
      <path id="Path_4663" data-name="Path 4663" d="M68.489,4.67a3.433,3.433,0,0,1,6.248,1.26,4.565,4.565,0,0,1-.484,2.693,11.365,11.365,0,0,1-3.025,3.837c-.863.746-1.793,1.417-2.685,2.115l-.6-.4a19.261,19.261,0,0,0,.76-1.882A3.333,3.333,0,0,0,67.485,8.6a3.39,3.39,0,0,0-3.915-.071c-.052.033-.105.062-.136.08-.273-.143-.531-.271-.781-.413a.422.422,0,0,1-.18-.189A3.452,3.452,0,0,1,65.1,3.158a3.316,3.316,0,0,1,3.226,1.3c.052.063.1.13.159.209" transform="translate(-58.92 -3.114)" fill="#fff"/>
      <path id="Path_4664" data-name="Path 4664" d="M62.568,11.476a2.5,2.5,0,0,1,1.4-1.01,2.369,2.369,0,0,1,2.393.634,2.4,2.4,0,0,1,.6,2.458,6.473,6.473,0,0,1-1.952,3.03c-.708.657-1.5,1.224-2.265,1.819a.343.343,0,0,1-.314.025,12.078,12.078,0,0,1-3.453-3.2,4.429,4.429,0,0,1-.906-2.363A2.439,2.439,0,0,1,62.4,11.278l.166.2" transform="translate(-58.067 -4.615)" fill="#fff"/>
    </g>
  </g>
</svg>
