<svg xmlns="http://www.w3.org/2000/svg" width="18.087" height="16.054" viewBox="0 0 18.087 16.054">
  <g id="Group_8933" data-name="Group 8933" transform="translate(3258 -162)">
    <path id="Path_6842" data-name="Path 6842" d="M16.837,2.5H1.25a1.25,1.25,0,0,1,0-2.5H16.837a1.25,1.25,0,0,1,0,2.5" transform="translate(-3258 162)" fill="#5d5d5d"/>
    <path id="Path_6843" data-name="Path 6843" d="M16.837,9.276H1.25a1.25,1.25,0,0,1,0-2.5H16.837a1.25,1.25,0,0,1,0,2.5" transform="translate(-3258 162)" fill="#5d5d5d"/>
    <path id="Path_6844" data-name="Path 6844" d="M16.837,16.054H1.25a1.25,1.25,0,0,1,0-2.5H16.837a1.25,1.25,0,0,1,0,2.5" transform="translate(-3258 162)" fill="#5d5d5d"/>
  </g>
</svg>
