<?xml version="1.0" encoding="UTF-8"?>
<svg id="uuid-557c013d-3d8f-4b29-8cc8-5500dbd44b08" data-name="Layer 1" xmlns="http://www.w3.org/2000/svg" viewBox="0 0 54.0006 30">
  <defs>
    <style>
      .uuid-33bb708e-03e2-4911-b34f-835de6fbc084 {
        fill: #585b5c;
        stroke-width: 0px;
      }
    </style>
  </defs>
  <g id="uuid-2aad093d-7d9c-4d8f-8bd1-dc35d28ec68d" data-name="Group 6037">
    <path id="uuid-225882bb-9056-45d8-8d6a-c8de9c59d614" data-name="Path 4640" class="uuid-33bb708e-03e2-4911-b34f-835de6fbc084" d="m15.5157.4236c.2201.1527.4322.3166.6356.491,1.7099,1.6082,3.4155,3.2206,5.1169,4.8372.3433.3274.6579.6833.9805,1.0313.0603.0833.1135.1716.1589.2638-.0906,0-.1589.0191-.2177.0191h-6.3405c-.3178,0-.4132-.0969-.4132-.3973V.6302c0-.0524,0-.1049.0111-.1589l.0604-.0509"/>
    <path id="uuid-462b4660-f4dc-4414-9e0a-e609c221300b" data-name="Path 4641" class="uuid-33bb708e-03e2-4911-b34f-835de6fbc084" d="m46.6923.4236c.2202.1527.4323.3166.6357.491,1.7099,1.6082,3.4154,3.2206,5.1169,4.8372.3433.3274.6579.6833.9805,1.0313.0601.0834.1133.1716.1589.2638-.0906,0-.1589.0191-.2177.0191h-6.3405c-.3178,0-.4132-.0969-.4132-.3973V.6302c0-.0524,0-.1049.0112-.1589l.0604-.0509"/>
    <path id="uuid-b64c6422-7fef-4efc-92fb-188214636b9d" data-name="Path 4642" class="uuid-33bb708e-03e2-4911-b34f-835de6fbc084" d="m22.8288,8.8204h-6.9396c-1.1285.0798-2.1079-.7704-2.1877-1.8988-.0066-.0937-.0068-.1877-.0005-.2814V.0581c-.0906-.0048-.1589-.0127-.2272-.0127H3.1811c-.4544-.003-.9031.1016-1.3094.3051C.6877.8844-.0522,2.085.0029,3.3825v23.5807c.1014,1.6875,1.4878,3.0108,3.1782,3.0336h16.4504c.2336.0002.4663-.0286.6928-.0858,1.4967-.3436,2.5405-1.699,2.4901-3.2338V9.081l.0143-.2606Zm-8.3015,15.16l-.7596-2.2438h-4.7403l-.7612,2.2438h-3.2386l4.5973-12.7017h3.5818l4.5941,12.7017h-3.2736Z"/>
    <path id="uuid-ae761a27-38e4-4926-a998-f06afe857f4f" data-name="Path 4643" class="uuid-33bb708e-03e2-4911-b34f-835de6fbc084" d="m9.841,19.3483h3.1305l-1.5748-4.6513-1.5557,4.6513Z"/>
    <path id="uuid-e28a7f8b-e15a-483f-90d5-5cddd6e0cf06" data-name="Path 4644" class="uuid-33bb708e-03e2-4911-b34f-835de6fbc084" d="m44.2165,15.0958c0-.8692-.561-1.3396-1.5748-1.3396h-2.0261v2.6602h2.0261c1.0138,0,1.5748-.4529,1.5748-1.3205"/>
    <path id="uuid-527322c6-0c10-4463-88b4-c2bb97463952" data-name="Path 4645" class="uuid-33bb708e-03e2-4911-b34f-835de6fbc084" d="m54.0006,9.0795v-.259h-6.9396c-1.1287.0771-2.1062-.7753-2.1833-1.9039-.0063-.092-.0063-.1843-.0002-.2763V.0581c-.0906,0-.1589-.0127-.2273-.0127h-10.2958c-.4544-.003-.9031.1016-1.3094.3051-1.1776.5336-1.9146,1.7274-1.864,3.0193v23.5855c.1014,1.6875,1.4878,3.0108,3.1782,3.0336h16.4504c.2336.0002.4663-.0287.6928-.0858,1.4964-.3441,2.5398-1.6992,2.4902-3.2338V9.0731m-10.5612,14.9074h-5.9163v-12.7017h5.7207c2.587,0,4.1316,1.2856,4.1316,3.2926.0497,1.3505-.8455,2.5543-2.1532,2.8953,1.4402.3044,2.4636,1.5855,2.4424,3.0574,0,2.0992-1.5383,3.4563-4.2159,3.4563"/>
    <path id="uuid-a114f3b9-e35a-4dd4-82bb-d66c7eaecfd3" data-name="Path 4646" class="uuid-33bb708e-03e2-4911-b34f-835de6fbc084" d="m42.8594,18.6792h-2.2438v2.8048h2.2804c1.0313,0,1.6289-.4767,1.6289-1.3746s-.6357-1.4302-1.6653-1.4302"/>
    <path id="uuid-290eff1a-4f99-4f61-be04-b36536daeb8b" data-name="Path 4647" class="uuid-33bb708e-03e2-4911-b34f-835de6fbc084" d="m27.0049,29.9984c-.7091,0-1.284-.5749-1.284-1.284V1.3294c-.025-.7087.5291-1.3035,1.2378-1.3286.7087-.0251,1.3036.5291,1.3286,1.2378.0011.0302.0011.0605,0,.0908v27.3866c0,.7091-.5749,1.284-1.284,1.284"/>
  </g>
</svg>