<?xml version="1.0" encoding="iso-8859-1"?>
<!-- Generator: Adobe Illustrator 19.0.0, SVG Export Plug-In . SVG Version: 6.00 Build 0)  -->
<svg version="1.1" id="Capa_1" xmlns="http://www.w3.org/2000/svg" xmlns:xlink="http://www.w3.org/1999/xlink" x="0px" y="0px"
	 viewBox="0 0 427.733 427.733" style="enable-background:new 0 0 427.733 427.733;" xml:space="preserve">
<g>
	<g>
		<g>
			<path d="M100.802,100.8c61.867-61.867,164.267-61.867,226.133,0l-49.067,49.067h128v-128L365.335,62.4
				c-83.2-83.2-219.733-83.2-302.933,0C15.469,109.333-3.731,173.333,2.669,235.2h53.333
				C49.602,188.267,64.535,137.067,100.802,100.8z"/>
			<path d="M425.069,192.533h-53.333c6.4,46.933-8.533,98.133-44.8,134.4c-61.867,61.867-164.267,61.867-226.133,0l49.067-49.067
				h-128v128l40.533-40.533c83.2,83.2,217.6,83.2,300.8,0C412.269,318.4,431.469,254.4,425.069,192.533z"/>
		</g>
	</g>
</g>
<g>
</g>
<g>
</g>
<g>
</g>
<g>
</g>
<g>
</g>
<g>
</g>
<g>
</g>
<g>
</g>
<g>
</g>
<g>
</g>
<g>
</g>
<g>
</g>
<g>
</g>
<g>
</g>
<g>
</g>
</svg>
