<?xml version="1.0" encoding="UTF-8"?>
<svg id="uuid-4aa7fbc6-e27a-4559-965d-87a2423bddd4" data-name="Layer 1" xmlns="http://www.w3.org/2000/svg" viewBox="0 0 30 30">
  <defs>
    <style>
      .uuid-d2e7113f-a803-4020-a2d0-fe866949d34d {
        fill: #585b5c;
        stroke-width: 0px;
      }
    </style>
  </defs>
  <path id="uuid-bf31c116-88ee-46d2-8e2b-014e351b0ec0" data-name="Path 4843" class="uuid-d2e7113f-a803-4020-a2d0-fe866949d34d" d="m6.0057,22.9905h-2.8842c-1.6563.0663-3.0528-1.2227-3.119-2.879-.0033-.0832-.0032-.1664.0004-.2496V4.1158C-.0642,2.4595,1.2242,1.0625,2.8805.9955c.0827-.0033.1654-.0033.2481.0002h23.7442c1.6562-.0692,3.0549,1.2172,3.1242,2.8734.0034.0822.0035.1644.0002.2466v15.7446c.0725,1.6561-1.2112,3.0573-2.8673,3.1298-.0856.0037-.1714.0038-.2571.0002h-11.5884c-.2885-.006-.5688.0959-.7861.2859-2.2539,1.8137-4.5164,3.6146-6.7732,5.4312-.3105.3134-.7884.3892-1.1806.1872-.3792-.1992-.5976-.6105-.5503-1.0362.0086-1.4893,0-2.9786,0-4.4678l.0114-.4002Zm9.0272-13.9909h-7.898c-.5525-.0024-1.0024.4436-1.0048.9962s.4436,1.0024.9962,1.0048h4.9952c3.5731,0,7.1591,0,10.7394-.0086.2562-.0043.507-.0752.7275-.2058.3525-.2318.5007-.6747.3587-1.0719-.1282-.4478-.5515-.7454-1.0162-.7146h-7.898m-4.0648,6.0029h3.899c.5525.0004,1.0008-.4472,1.0012-.9998s-.4472-1.0008-.9998-1.0012h-7.7394c-.1139-.0048-.2279.0029-.3402.0229-.534.1418-.852.6897-.7102,1.2238.1127.4243.4888.7255.9274.7429h3.9619"/>
</svg>