<?xml version="1.0" encoding="UTF-8"?>
<svg id="uuid-079b4680-3932-4737-9e9c-031346ed5052" data-name="Layer 1" xmlns="http://www.w3.org/2000/svg" viewBox="0 0 43.4115 30">
  <defs>
    <style>
      .uuid-ae4a8951-c32a-48ac-9ffb-f95b6f0b7273 {
        fill: #3b3e3d;
        stroke-width: 0px;
      }
    </style>
  </defs>
  <path class="uuid-ae4a8951-c32a-48ac-9ffb-f95b6f0b7273" d="m19.7452,23.8849c.9577,0,1.9032-.1533,2.8106-.4563,4.6307-1.5421,7.1573-6.5425,5.6645-11.1784l-3.9553.0095c.9369,1.4573,1.0546,3.3449.2442,4.9614-.7793,1.8382-2.5716,3.0193-4.5839,3.0193-.0502,0-.1004,0-.1524-.0017-3.6228.0251-7.2906.0277-10.8875.0043-.0364.0009-.0727.0009-.1074.0009-1.8114,0-3.4843-.9784-4.3761-2.5725-1.0217-1.5811-1.0529-3.5942-.0675-5.2307.8849-1.6884,2.6513-2.7188,4.5787-2.6799,1.2798-.019,2.5786-.0139,3.8791-.0052l.7845.0043c.7412-1.4296,1.7716-2.6721,3.0028-3.6419l-1.4599-.0026c-2.0625-.0035-4.125-.0087-6.191.0095-2.8227-.0139-5.5087,1.3187-7.1573,3.615-2.6201,3.5033-2.3032,8.308.7481,11.4295,1.6833,1.769,4.0073,2.7569,6.4802,2.7206l3.3994.0026c2.4435.0017,4.8939.0043,7.3461-.0078Z"/>
  <g>
    <path class="uuid-ae4a8951-c32a-48ac-9ffb-f95b6f0b7273" d="m34.5863,23.871c3.0808.0459,6.0074-1.5932,7.5417-4.2973.8295-1.3724,1.2711-2.9318,1.2832-4.5198.019-2.3656-.8849-4.5969-2.5439-6.2828s-3.8756-2.6245-6.2412-2.6435c-3.273-.0416-6.6066-.026-9.8276-.0095l-1.065.0052c-2.8072-.0545-5.3857,1.2243-7.0361,3.4245-1.8651,2.2963-2.4244,5.4273-1.4789,8.2085l3.9813-.0095c-.9559-1.4867-1.065-3.4098-.2424-5.0221.8001-1.8374,2.589-3.0132,4.667-2.9595,3.6453-.0242,7.3409-.0242,10.9654.0035.8953.0069,1.7785.245,2.5578.6901,1.214.6944,2.0833,1.8192,2.4504,3.1682.3671,1.3482.187,2.7587-.5074,3.9709-.9057,1.6729-2.6409,2.6903-4.5735,2.6461-1.2209.019-2.4608.0121-3.7025.0069l-.9438-.0052c-.7481,1.4417-1.7473,2.653-2.9907,3.6375.5386.0017,1.0789.0043,1.6174.0069,1.9932.0113,4.0592.0182,6.0888-.019Z"/>
    <rect class="uuid-ae4a8951-c32a-48ac-9ffb-f95b6f0b7273" x="20.0344" y="18.1804" width=".0001" height=".0002"/>
    <path class="uuid-ae4a8951-c32a-48ac-9ffb-f95b6f0b7273" d="m15.0332,17.7571h.0658c-.0104-.0026-.0208-.0035-.0329-.0035-.0104,0-.0225.0009-.0329.0035Z"/>
  </g>
</svg>