<svg xmlns="http://www.w3.org/2000/svg" xmlns:xlink="http://www.w3.org/1999/xlink" width="19.029" height="19.037" viewBox="0 0 19.029 19.037">
  <defs>
    <clipPath id="clip-path">
      <rect id="Rectangle_9026" data-name="Rectangle 9026" width="19.029" height="19.037" transform="translate(0 0)" fill="#54585d"/>
    </clipPath>
  </defs>
  <g id="Group_10369" data-name="Group 10369" transform="translate(0 0)">
    <g id="Group_10368" data-name="Group 10368" clip-path="url(#clip-path)">
      <path id="Path_7896" data-name="Path 7896" d="M18.789,5.332h0l0,0a13.547,13.547,0,0,0-.234-1.554,4.392,4.392,0,0,0-1.237-2.129,4.2,4.2,0,0,0-2-1.2,17.807,17.807,0,0,0-3.7-.437A21.738,21.738,0,0,0,7.474.3a4.549,4.549,0,0,0-2.181.907,4.591,4.591,0,0,0-1.8,2.9c-.125.812-.187,1.63-.284,2.446a.3.3,0,0,1-.111.186c-.555.38-1.121.746-1.671,1.133A10.026,10.026,0,0,0,.375,8.7a1.06,1.06,0,0,0-.2,1.391,1.7,1.7,0,0,0,.429.464c.826.591,1.663,1.164,2.493,1.748a.273.273,0,0,1,.109.171q.117,1.009.214,2.022a4.6,4.6,0,0,0,1.307,2.827,4.419,4.419,0,0,0,2.422,1.352,21.73,21.73,0,0,0,2.9.336A19.851,19.851,0,0,0,15,18.658a4.619,4.619,0,0,0,3.432-2.987,6.4,6.4,0,0,0,.338-1.772,42.059,42.059,0,0,0,.261-4.917c0-.838-.088-2.246-.24-3.65M10.8,16.624h-.006a1.511,1.511,0,1,1,.006,0m3.874-8.052h0q-.057.056-.114.105l-.017.006c-.406.358-.876.65-1.317.972-.249.183-.506.354-.746.548a.925.925,0,0,0-.354.741,2.537,2.537,0,0,1-.059.632,1.316,1.316,0,0,1-1.418.973A1.3,1.3,0,0,1,9.474,11.4,3.161,3.161,0,0,1,9.92,9.16a4.215,4.215,0,0,1,1.207-1.1c.377-.246.761-.484,1.121-.753a1.3,1.3,0,0,0,.591-1.017,1.024,1.024,0,0,0-.5-.961,2.1,2.1,0,0,0-2.617.487,3.366,3.366,0,0,0-.333.692,1.43,1.43,0,0,1-1.65.863,1.41,1.41,0,0,1-1.1-1.458,1.992,1.992,0,0,1,.139-.579A4.249,4.249,0,0,1,9.79,2.646a11.933,11.933,0,0,1,1.3-.225,4.815,4.815,0,0,1,3.643,1.368,3.384,3.384,0,0,1-.064,4.783" fill="#54585d"/>
    </g>
  </g>
</svg>
