<svg xmlns="http://www.w3.org/2000/svg" width="24.354" height="24.366" viewBox="0 0 24.354 24.366">
  <path id="Path_7893" data-name="Path 7893" d="M24.046,6.825l.006-.006a17.4,17.4,0,0,0-.3-1.989,5.62,5.62,0,0,0-1.583-2.724A5.361,5.361,0,0,0,19.613.569a22.8,22.8,0,0,0-4.729-.56A27.891,27.891,0,0,0,9.566.387,5.823,5.823,0,0,0,6.774,1.548,5.873,5.873,0,0,0,4.47,5.26C4.309,6.3,4.23,7.347,4.106,8.391a.377.377,0,0,1-.142.238c-.71.487-1.435.955-2.139,1.45A12.928,12.928,0,0,0,.48,11.13a1.357,1.357,0,0,0-.257,1.78,2.162,2.162,0,0,0,.549.595c1.057.756,2.128,1.489,3.19,2.237a.35.35,0,0,1,.14.219c.1.861.192,1.723.274,2.588a5.887,5.887,0,0,0,1.673,3.618,5.647,5.647,0,0,0,3.1,1.73,27.74,27.74,0,0,0,3.712.43,25.331,25.331,0,0,0,6.335-.447,5.913,5.913,0,0,0,4.393-3.822,8.222,8.222,0,0,0,.432-2.268,53.921,53.921,0,0,0,.334-6.294c0-1.072-.113-2.874-.307-4.671M13.924,22.662a2.234,2.234,0,1,1,2.233-2.235,2.23,2.23,0,0,1-2.233,2.235m5.723-11.875q-.083.081-.167.155l-.025.008c-.6.529-1.293.959-1.943,1.435-.368.269-.746.522-1.1.808a1.358,1.358,0,0,0-.522,1.092,3.8,3.8,0,0,1-.088.932,1.941,1.941,0,0,1-2.091,1.435,1.916,1.916,0,0,1-1.727-1.692,4.67,4.67,0,0,1,.658-3.306,6.208,6.208,0,0,1,1.78-1.617c.556-.363,1.122-.714,1.654-1.111a1.912,1.912,0,0,0,.871-1.5,1.512,1.512,0,0,0-.731-1.418,3.1,3.1,0,0,0-3.86.719,4.853,4.853,0,0,0-.491,1.021A2.11,2.11,0,0,1,9.431,9.02,2.079,2.079,0,0,1,7.806,6.87a2.938,2.938,0,0,1,.205-.854,6.267,6.267,0,0,1,4.439-3.969,17.428,17.428,0,0,1,1.918-.332,7.1,7.1,0,0,1,5.372,2.018,4.99,4.99,0,0,1-.094,7.054" transform="translate(0 -0.001)" fill="#4e5152"/>
</svg>
