<?xml version="1.0" encoding="UTF-8"?>
<svg id="uuid-ee7a5609-5e3d-4d3e-a5da-5e3915d8b452" data-name="Layer 1" xmlns="http://www.w3.org/2000/svg" viewBox="0 0 200 151.3582">
  <defs>
    <style>
      .uuid-da3d7f5d-cb1c-492d-a41b-561437215c96 {
        fill: #1D6BD7;
      }
    </style>
  </defs>
  <g id="uuid-659ad63d-8023-4920-b3f0-666004d6f084" data-name="Group 6370">
    <path class="uuid-da3d7f5d-cb1c-492d-a41b-561437215c96" d="m132.848,87.9896H15.3621c-8.4862,0-15.3621-6.8759-15.3621-15.3621s6.8759-15.3621,15.3621-15.3621h117.486c8.4812,0,15.3621,6.8759,15.3621,15.3621s-6.8809,15.3621-15.3621,15.3621Z"/>
    <path class="uuid-da3d7f5d-cb1c-492d-a41b-561437215c96" d="m122.1566,151.3582c-3.9305,0-7.8511-1.5002-10.8515-4.4906-6.0058-5.9908-6.0158-15.7221-.02-21.723l51.227-51.322-50.8069-47.2064c-6.2208-5.7758-6.5759-15.4971-.8001-21.7129,5.7708-6.2208,15.5121-6.5609,21.7029-.8001l62.4785,58.0479c3.0604,2.8404,4.8307,6.8009,4.9107,10.9665.08,4.1706-1.5402,8.1911-4.4906,11.1415l-62.4785,62.5885c-3.0004,3.0104-6.9309,4.5106-10.8715,4.5106Z"/>
  </g>
</svg>