<?xml version="1.0" encoding="UTF-8"?>
<svg id="uuid-03acd2cd-cd4a-4919-aa0e-c2c620b7a11a" data-name="Layer 1" xmlns="http://www.w3.org/2000/svg" viewBox="0 0 30 30">
  <defs>
    <style>
      .uuid-b24ebbaa-4ab8-430e-92a3-e3f75595dc66 {
        fill: #3b3e3d;
        stroke-width: 0px;
      }
    </style>
  </defs>
  <g id="uuid-4b6026e7-e7c9-41a7-8e71-3124f61e6e7d" data-name="Group 8935">
    <path id="uuid-28f927e9-efc7-4e2d-8d16-95ce3df4d7ff" data-name="Path 6845" class="uuid-b24ebbaa-4ab8-430e-92a3-e3f75595dc66" d="m5.8743,26.8033V3.1939h8.1079c2.3967-.1331,4.7803.4348,6.8594,1.6344,1.6311,1.0614,2.5708,2.9135,2.4642,4.8567.0187,1.0543-.2564,2.093-.7946,2.9997-.5761.9117-1.439,1.6061-2.4528,1.9738,1.2253.2134,2.3223.8883,3.0651,1.8858.6637.9592,1.0097,2.1025.9894,3.2688.1297,2.0152-.7365,3.966-2.3183,5.2213-1.9614,1.2971-4.2927,1.9182-6.6394,1.7689H5.8743Zm5.4966-13.7666h2.7244c.9819.0512,1.9558-.2008,2.7898-.7216.625-.4772.9715-1.2342.9241-2.0191.0724-.8439-.2802-1.6683-.9404-2.1989-.8694-.5233-1.8797-.7641-2.8916-.689h-2.6062v5.6286Zm0,3.6321v5.919h3.7717c.928.0678,1.8523-.1745,2.6276-.689.6147-.5241.9418-1.3105.8801-2.1159.0623-.8445-.2084-1.6798-.7543-2.3271-.672-.5842-1.5537-.8681-2.4403-.7858l-4.0847-.0013Z"/>
  </g>
</svg>