<?xml version="1.0" encoding="UTF-8"?>
<svg id="uuid-661c18fe-3da2-468b-9783-02edb884e042" data-name="Layer 1" xmlns="http://www.w3.org/2000/svg" viewBox="0 0 30 30">
  <defs>
    <style>
      .uuid-05b4d930-e50d-4a2a-a1a2-6b5c1a0ad27b {
        fill: #3b3e3d;
        stroke-width: 0px;
      }
    </style>
  </defs>
  <g id="uuid-cf6f1f0a-16b9-410f-b9e9-aba044557bde" data-name="Icon">
    <path id="uuid-7507c246-da18-489a-b675-954ac06cb2f0" data-name=" 86" class="uuid-05b4d930-e50d-4a2a-a1a2-6b5c1a0ad27b" d="m21.2109,0h-12.4219C3.9352,0,0,3.9352,0,8.7891v12.4219C0,26.0648,3.9352,30,8.7891,30h12.4219c4.8539,0,8.7891-3.9352,8.7891-8.7891v-12.4219C30,3.9352,26.0648,0,21.2109,0Zm5.8594,21.2109c0,3.2309-2.6285,5.8594-5.8594,5.8594h-12.4219c-3.2309,0-5.8594-2.6285-5.8594-5.8594v-12.4219c0-3.2309,2.6285-5.8594,5.8594-5.8594h12.4219c3.2309,0,5.8594,2.6285,5.8594,5.8594v12.4219Zm-14.2887-3.7277l.9023.9023c.5027.5027.5027,1.3172,0,1.8199s-1.3172.5027-1.8199,0l-3.0996-3.0996c-.5027-.5027-.5027-1.3172,0-1.8199l3.0996-3.0996c.5027-.5027,1.3172-.5027,1.8199,0s.5027,1.3172,0,1.8199l-.9023.9023h5.6133c.3557,0,.6434-.2883.6434-.6434v-3.5619c0-.7107.576-1.2867,1.2867-1.2867s1.2867.576,1.2867,1.2867v4.2053c0,1.4215-1.1525,2.574-2.574,2.574h-6.2572l.0012.0006Z"/>
  </g>
</svg>