<?xml version="1.0" encoding="UTF-8"?>
<svg id="uuid-ccc2b935-9910-4d88-8e07-f8e7761e22dc" data-name="Layer 1" xmlns="http://www.w3.org/2000/svg" viewBox="0 0 50.6421 30">
  <defs>
    <style>
      .uuid-f3a35b23-4d01-442b-90aa-5de89ccd78d3 {
        fill: #585b5c;
        stroke-width: 0px;
      }
    </style>
  </defs>
  <g id="uuid-10945dbf-3fa9-4ea7-938f-65e3569c9434" data-name="Group 6033">
    <path id="uuid-1a269f94-e7eb-4909-8734-01a873aa2c2a" data-name="Path 4635" class="uuid-f3a35b23-4d01-442b-90aa-5de89ccd78d3" d="m10.8103,29.9836c-2.3964.0357-4.7891-.2001-7.1325-.7028-.9877-.2122-1.9384-.5702-2.8208-1.0621-.6311-.2908-.9733-.983-.821-1.661.3451-2.0187.6382-4.0437.9707-6.064.7266-3.308,3.3392-5.8743,6.6597-6.5415.9335-.1869,1.8848-.2699,2.8366-.2474,1.2092-.0641,2.4216.0318,3.6056.2852,3.1184.6377,5.6014,2.9955,6.3997,6.0766.353,1.3364.4728,2.7231.6997,4.0879.1355.8258.2443,1.6547.3955,2.4773.1332.6242-.1763,1.2587-.7501,1.5381-1.1226.6374-2.3501,1.0691-3.6245,1.2749-2.1162.3817-4.2637.5622-6.4139.5389"/>
    <path id="uuid-c2754f6e-8711-43f5-b7fb-793e4503fd8c" data-name="Path 4636" class="uuid-f3a35b23-4d01-442b-90aa-5de89ccd78d3" d="m10.8244,12.8474c-3.5466.0051-6.4259-2.8659-6.431-6.4125C4.3883,2.8882,7.2593.009,10.806.0039c3.5281-.0051,6.3995,2.8371,6.4307,6.365.0322,3.5456-2.816,6.446-6.3616,6.4782-.0169.0002-.0338.0002-.0507.0003"/>
    <path id="uuid-c7390c57-a106-4083-9e90-67bc062c1233" data-name="Path 4637" class="uuid-f3a35b23-4d01-442b-90aa-5de89ccd78d3" d="m50.2706,8.3955c-.075-.8226-.1971-1.6403-.3656-2.4489-.3178-1.2809-.994-2.4446-1.9494-3.3551-.8502-.9162-1.9433-1.572-3.1518-1.8911-1.9111-.4321-3.8622-.6635-5.8213-.6902-2.193-.0534-4.3861.1028-6.5494.4665-1.2509.1651-2.436.6576-3.4354,1.4278-1.4983,1.1017-2.5143,2.7385-2.8366,4.5701-.2002,1.278-.2962,2.5703-.4491,3.8562-.0192.1158-.0818.22-.1749.2915-.8746.6004-1.7666,1.1772-2.6333,1.7871-.5807.394-1.1345.8263-1.6578,1.2938-.6439.546-.7792,1.4867-.3152,2.1921.1769.2849.4063.5336.676.7328,1.3001.9314,2.6191,1.8328,3.9271,2.7531.0892.065.1505.1612.1718.2695.1213,1.0606.238,2.1227.3388,3.1865.1476,1.6793.876,3.2547,2.0597,4.455,1.0093,1.1023,2.3473,1.8495,3.8152,2.1306,1.5097.2791,3.0366.456,4.5701.5295,2.613.145,5.2339-.0398,7.8007-.55,2.5033-.5105,4.5558-2.2957,5.4085-4.704.3081-.9017.4875-1.8423.5327-2.7941.2878-2.5732.4246-5.161.4097-7.7502,0-1.319-.1402-3.5379-.3782-5.7504m-12.054,15.6092c-.5358.0221-1.0732.0236-1.6074,0-.4334-.0251-.7865-.357-.8384-.7879-.1049-.5927-.1049-1.1991,0-1.7918.0611-.3993.3858-.7058.7879-.7438.5591-.0284,1.1193-.0284,1.6783,0,.4312.0252.7811.3584.8273.7879.0457.2915.0599.5894.0882.8872-.03.2931-.0441.5894-.093.8809-.0623.427-.4213.7482-.8525.7627m3.7585-9.5988c-.4964.4349-1.0622.7879-1.5964,1.1788-.3025.2206-.613.4286-.9046.6635-.2757.2151-.4344.5471-.4286.8967.0078.2573-.0165.5146-.0725.7659-.2014.7643-.9322,1.2658-1.7177,1.1788-.7419-.0697-1.3336-.6496-1.4183-1.3899-.1641-.9408.0286-1.909.5405-2.7153.3963-.5338.8931-.9851,1.4624-1.3285.457-.2978.9219-.5862,1.3584-.9124.4219-.2719.688-.7296.7155-1.2308.0388-.471-.1942-.923-.6004-1.1646-1.0631-.5814-2.3885-.3344-3.1707.591-.1661.2631-.3014.5444-.4034.8384-.3182.7925-1.1661,1.2352-1.9982,1.0432-.818-.1818-1.3833-.9301-1.3348-1.7666.0213-.2408.0781-.4771.1686-.7013.5886-1.6317,1.9593-2.8574,3.6464-3.2605.5198-.1202,1.0459-.2112,1.5759-.2726,1.6386-.093,3.2405.5088,4.4125,1.6578,1.5789,1.6211,1.5446,4.2151-.0765,5.794-.045.0438-.0909.0865-.1378.1282"/>
  </g>
</svg>