<?xml version="1.0" encoding="UTF-8"?>
<svg id="uuid-1a246b8c-a4e9-439e-abfb-82d65a7f6fb1" data-name="Layer 1" xmlns="http://www.w3.org/2000/svg" viewBox="0 0 30 30">
  <defs>
    <style>
      .uuid-c14c0749-b747-4cd6-b958-f75a049d6578 {
        fill: #3b3e3d;
        stroke-width: 0px;
      }
    </style>
  </defs>
  <path class="uuid-c14c0749-b747-4cd6-b958-f75a049d6578" d="m20.414,9.2306c-.6286.6192-1.2181,1.1911-1.7962,1.7744-.1825.1842-.3388.3952-.4998.5998-.3459.4397.0411,1.1915.4696,1.3109.183.051.3752.0965.5635.0972,2.1661.0078,4.3323.0131,6.4985.004.7495-.0031,1.152-.4402,1.1522-1.1957.0005-2.1215.0045-4.2431-.0035-6.3646-.0016-.4209-.0663-.833-.4826-1.08-.3376-.2003-.6849-.2683-1.0041.0049-.4427.379-.8704.7766-1.2911,1.1802-.2932.2812-.5638.5859-.8525.8885-.3133-.247-.5878-.467-.8659-.6821-1.7829-1.3787-3.7878-2.223-6.0284-2.489-2.9855-.3544-5.683.4459-8.1073,2.1535-2.638,1.8581-4.1797,4.4497-4.7741,7.6036-.5396,2.863.0586,5.5361,1.5346,8.0054,1.8921,3.1654,4.7305,4.9936,8.3384,5.604,2.922.4944,5.6192-.1969,8.1189-1.7417.9362-.5786,1.7383-1.313,2.464-2.1348.0859-.0973.195-.1998.2224-.3166.0354-.1512.0195-.3234-.0135-.4781-.0186-.0875-.1091-.1649-.1788-.2353-.5892-.5952-1.1766-1.1924-1.7739-1.7794-.4025-.3955-.6781-.3846-1.0393.0526-.8751,1.0591-1.9462,1.8391-3.2248,2.3422-1.299.5112-2.6392.6236-4.0061.4104-1.9562-.3052-3.5823-1.2113-4.863-2.7329-.8702-1.0339-1.4353-2.2195-1.6795-3.5372-.3362-1.8141-.0865-3.5515.7871-5.1998.8636-1.6294,2.1541-2.789,3.8184-3.5214,1.2257-.5394,2.5248-.7212,3.87-.5994,1.1778.1066,2.2667.4662,3.2727,1.0665.4646.2772.8827.6323,1.3741.99Z"/>
</svg>