<?xml version="1.0" encoding="UTF-8"?>
<svg id="uuid-4e83bf61-bc3b-4174-b99f-967573ba26e4" data-name="Layer 1" xmlns="http://www.w3.org/2000/svg" viewBox="0 0 30 30">
  <defs>
    <style>
      .uuid-972bc10a-f952-4d29-b8bf-963b8a513b00 {
        fill: #3b3e3d;
        stroke-width: 0px;
      }
    </style>
  </defs>
  <g id="uuid-61347445-336e-4528-a286-e554c3850b00" data-name="Group 6558">
    <path id="uuid-245059af-409f-47d4-affa-35875d7accc6" data-name="Path 4869" class="uuid-972bc10a-f952-4d29-b8bf-963b8a513b00" d="m29.0098,26.5412c-.7014-.7323-1.4154-1.4561-2.1295-2.18-1.1391-1.1559-2.2824-2.3081-3.4298-3.4565-.1263-.1277-.1164-.202-.0168-.3423.2244-.3002.4391-.6074.6369-.9258.9552-1.5523,1.5692-3.29,1.8012-5.0978-.0968.1403-.1894.2693-.2806.4026-.7959,1.291-2.3266,1.9305-3.8044,1.5894-2.0582,4.7417-7.5706,6.917-12.3122,4.8588-.1654-.0718-.3287-.1484-.4897-.2296.0053-.0099.0114-.0193.0182-.0281,1.494-2.1087,3.185-4.0707,5.0501-5.8595,1.7929-1.8111,3.8366-3.3555,6.0685-4.5858.4208-.2287.6186-.1319.7617.3086.2371.7309.4826,1.4631.787,2.1687.0575.2339.21.4333.4208.5499.1232.0632.26.095.3984.0926.3182.0088.6147-.1605.7687-.4391.8094-1.1349,1.6034-2.2781,2.4072-3.4158,1.2317-1.7437,2.4689-3.4817,3.688-5.2324.4896-.7014.2806-1.2765-.5611-1.5782-.7014-.2553-1.4281-.4573-2.1449-.679-2.4708-.7818-4.9463-1.5562-7.4264-2.323-.4209-.2248-.9359-.1739-1.3046.1291-.1371.1526-.2298.3399-.2679.5415-.0615.2713-.02.5558.1164.7982.2806.7589.5317,1.5248.794,2.2824l-.014.0561c-.0252.0379-.0252.0309-.0547.0505l-.2497.1557-.0463.0238c-.2104.1136-.404.2525-.6088.3774-1.7824,1.0701-3.326,2.4949-4.5353,4.186-2.1704,2.8901-3.751,6.179-4.6517,9.6793-.188.7014-.3254,1.4238-.4531,2.1421-.9281-.631-1.7357-1.423-2.3848-2.3385-1.1277-1.5802-1.7329-3.4735-1.7311-5.4148v-.1192c.0669-5.1687,4.3111-9.3045,9.4798-9.2376.0038,0,.0077.0001.0115.0002.2918,0,.5794.0253.8627.0561.2974-.2399.5948-.4784.9062-.7014l.0491-.0926.0365-.021c-.3706-.7979-.4606-1.6976-.2553-2.5531-1.6154-.2314-3.2602-.1509-4.8453.2371-1.7369.4291-3.3587,1.2335-4.7513,2.3567C1.6196,5.5782-.2142,10.2335.554,14.8404c.2761,1.9173,1.0099,3.74,2.1393,5.3138,1.2722,1.7944,2.9815,3.2343,4.9659,4.1832.2553.122.498.2651.7617.3703,2.2842.9402,4.7962,1.1809,7.2174.6916,1.6461-.3345,3.2136-.9786,4.6194-1.898h0c.0379.0351.0701.0603.0982.0884,1.8751,1.8798,3.7483,3.7581,5.6196,5.635.1432.146.2975.2806.4615.4026.9068.6445,2.1644.4319,2.809-.4749.5756-.8099.4747-1.9185-.2376-2.6112"/>
  </g>
</svg>